<svg version="1.1" viewBox="0.0 0.0 900.0 200.0" fill="none" stroke="none" stroke-linecap="square" stroke-miterlimit="10" xmlns:xlink="http://www.w3.org/1999/xlink" xmlns="http://www.w3.org/2000/svg"><clipPath id="p.0"><path d="m0 0l900.0 0l0 200.0l-900.0 0l0 -200.0z" clip-rule="nonzero"/></clipPath><g clip-path="url(#p.0)"><path fill="#000000" fill-opacity="0.0" d="m0 0l900.0 0l0 200.0l-900.0 0z" fill-rule="evenodd"/><path fill="#434343" d="m49.070866 37.92188l0 0c0 -17.142912 13.897079 -31.03999 31.03999 -31.03999l739.7783 0c8.2323 0 16.127441 3.2702756 21.948547 9.091402c5.821167 5.821128 9.091431 13.716271 9.091431 21.948586l0 124.15625c0 17.142914 -13.897095 31.039978 -31.039978 31.039978l-739.7783 0c-17.14291 0 -31.03999 -13.897064 -31.03999 -31.039978z" fill-rule="evenodd"/><path stroke="#4a86e8" stroke-width="1.0" stroke-linejoin="round" stroke-linecap="butt" d="m49.070866 37.92188l0 0c0 -17.142912 13.897079 -31.03999 31.03999 -31.03999l739.7783 0c8.2323 0 16.127441 3.2702756 21.948547 9.091402c5.821167 5.821128 9.091431 13.716271 9.091431 21.948586l0 124.15625c0 17.142914 -13.897095 31.039978 -31.039978 31.039978l-739.7783 0c-17.14291 0 -31.03999 -13.897064 -31.03999 -31.039978z" fill-rule="evenodd"/><path fill="#4a86e8" d="m129.71286 37.611412l-2.2102356 5.05212l10.532471 0l0 30.402943l5.0519714 -2.2103043l0 -28.192638l8.322235 0l2.2102356 -5.05212z" fill-rule="evenodd"/><path fill="#4a86e8" d="m167.78311 51.076214c1.2479706 0 2.2829285 0.4034691 3.1048737 1.2104034c0.7367401 0.7317581 1.1276703 1.4685249 1.1727753 2.2103043l-8.29216 3.6988754l0 -2.947071c0 -0.015037537 0 -0.037590027 0 -0.067661285c0 -1.1226959 0.4034729 -2.0875092 1.2103729 -2.8944473c0.8069 -0.80693436 1.7416077 -1.2104034 2.8041382 -1.2104034zm0.1353302 -5.097229c-2.546051 0 -4.716202 0.89715195 -6.510437 2.6914597c-1.7942657 1.7943039 -2.6913757 3.9645119 -2.6913757 6.51062l0 8.2999115c0 2.5461082 0.89711 4.7163124 2.6913757 6.5106163c1.7942657 1.7943039 3.9644165 2.6914597 6.510437 2.6914597c2.5510406 0 4.666046 -0.88713074 6.345047 -2.6613846c1.9345703 -2.0649567 2.9018707 -4.245186 2.9018707 -6.5406914l0 -3.0974312l-5.0519714 2.2478905l0 0.77436066c-0.025054932 1.1978722 -0.43351746 2.187748 -1.2254028 2.9696236c-0.8219452 0.8069382 -1.7666931 1.2104034 -2.8342285 1.2104034c-1.2429352 0 -2.2678528 -0.4134903 -3.0747833 -1.2404785c-0.8069 -0.8269806 -1.2103729 -1.7015839 -1.2103729 -2.6237907l13.396759 -5.9542847l0 -2.5862045c0 -2.6463509 -0.9096527 -4.8215675 -2.7289734 -6.5256577c-1.8995056 -1.7842789 -4.072159 -2.676422 -6.5179443 -2.676422z" fill-rule="evenodd"/><path fill="#4a86e8" d="m190.99063 45.978985c-1.8995056 0 -3.5208588 0.6716118 -4.864029 2.0148354c-1.3431854 1.3432236 -2.0147705 2.957096 -2.0147705 4.841614l0 20.231041l5.0519714 -2.2103043l0.02255249 -17.907963c0 -0.55633545 0.18545532 -1.0249596 0.5563202 -1.4058762c0.37590027 -0.3859253 0.8069 -0.57888794 1.2930756 -0.57888794c0.4711151 0 0.8845978 0.19045639 1.2404327 0.571373c0.3608551 0.38091278 0.5412903 0.85204315 0.5412903 1.4133911l-0.02255249 20.118267l5.0519714 -2.2103043l0.02255249 -17.907963l0 -0.022556305c0 -0.5312729 0.19044495 -0.99739456 0.5713501 -1.3983536c0.35084534 -0.37590408 0.7768707 -0.5638542 1.2780304 -0.5638542c0.47113037 0 0.88461304 0.19045639 1.240448 0.571373c0.3608551 0.38091278 0.541275 0.85204315 0.541275 1.4133911l-0.02255249 20.118267l5.0519867 -2.2103043l0 -17.99818c-0.015045166 -1.9396553 -0.6615753 -3.573574 -1.9396057 -4.90176c-1.2680206 -1.318161 -2.9069061 -1.9772453 -4.9166565 -1.9772453c-1.8794556 0 -3.3178558 0.4861679 -4.3152313 1.4584999c-0.9522705 -0.972332 -2.4082336 -1.4584999 -4.367859 -1.4584999z" fill-rule="evenodd"/><path fill="#4a86e8" d="m222.54294 51.076214c1.2479553 0 2.2829132 0.4034691 3.1048584 1.2104034c0.7918854 0.7818756 1.2003632 1.7717514 1.2254028 2.9696274l0 8.149551c-0.025054932 1.1978722 -0.4335327 2.187748 -1.2254028 2.9696236c-0.8219452 0.8069382 -1.7666779 1.2104034 -2.8342133 1.2104034c-1.1176453 0 -2.1200256 -0.40847778 -3.0071259 -1.225441c-0.8520355 -0.79190063 -1.2780304 -1.7742538 -1.2780304 -2.947071l0 -8.164585l0 -0.12780762c0.015029907 -1.0976334 0.41848755 -2.0424004 1.2103577 -2.834301c0.80693054 -0.80693436 1.7416382 -1.2104034 2.8041534 -1.2104034zm0.18043518 -5.097229c-2.5460358 0 -4.723694 0.89715195 -6.5329895 2.6914597c-1.8092957 1.7943039 -2.7139435 3.9645119 -2.7139435 6.51062l0 26.70406l5.0519867 -2.2102966l0 -7.841316c0.7918701 0.5663605 2.1901855 0.8495407 4.1949463 0.8495407c2.5460205 0 4.7161713 -0.89715576 6.5104218 -2.6914597c1.7942505 -1.7943039 2.691391 -3.964508 2.691391 -6.5106163l0 -8.2999115c0 -2.546112 -0.8971405 -4.716316 -2.691391 -6.51062c-1.7942352 -1.7943077 -3.964386 -2.6914597 -6.5104218 -2.6914597z" fill-rule="evenodd"/><path fill="#4a86e8" d="m249.92285 51.076214c1.2479553 0 2.282898 0.4034691 3.1048584 1.2104034c0.7918854 0.7818756 1.2003632 1.7717514 1.2254028 2.9696274l0 8.149551c-0.025054932 1.1978722 -0.4335327 2.187748 -1.2254028 2.9696236c-0.82196045 0.8069382 -1.7666931 1.2104034 -2.8342133 1.2104034c-1.1176453 0 -2.1200256 -0.40847778 -3.007141 -1.225441c-0.85202026 -0.79190063 -1.2780304 -1.7742538 -1.2780304 -2.947071l0 -8.164585l0 -0.12780762c0.015045166 -1.0976334 0.41848755 -2.0424004 1.2103729 -2.834301c0.8069153 -0.80693436 1.7416382 -1.2104034 2.8041534 -1.2104034zm0.13531494 -5.097229c-2.5460205 0 -4.7161713 0.89715195 -6.510437 2.6914597c-1.7942352 1.7943039 -2.6913757 3.9645119 -2.6913757 6.51062l0 8.2999115c0 2.5461082 0.8971405 4.7163124 2.6913757 6.5106163c1.7942505 1.7943039 3.9644012 2.6914597 6.510437 2.6914597c2.5460358 0 4.723694 -0.89715576 6.5329895 -2.6914597c1.8092957 -1.7943039 2.7139282 -3.964508 2.7139282 -6.5106163l0 -8.2999115c0 -2.546112 -0.90463257 -4.716316 -2.7139282 -6.51062c-1.8092804 -1.7943077 -3.9869385 -2.6914597 -6.5329895 -2.6914597z" fill-rule="evenodd"/><path fill="#4a86e8" d="m277.43808 45.978985c-2.5460205 0 -4.716156 0.89715195 -6.510437 2.6914597c-1.7942505 1.7943039 -2.6913757 3.9645119 -2.6913757 6.51062l0 17.88541l5.0519714 -2.2103043l0 -15.607445c0 -0.015037537 0 -0.037590027 0 -0.067661285c0 -1.1226959 0.40847778 -2.0875092 1.2254028 -2.8944473c0.82196045 -0.80693436 1.8193054 -1.2104034 2.992096 -1.2104034c1.1126404 0 2.0799255 0.4034691 2.901886 1.2104034c0.7918701 0.7818756 1.2003479 1.7717514 1.2254028 2.9696274l0 2.6989746l5.0519714 -2.2103043l0 -0.5638504c0 -2.4809532 -0.9021301 -4.648655 -2.706421 -6.5031013c-1.7691956 -1.7993164 -3.9493713 -2.6989784 -6.540497 -2.6989784z" fill-rule="evenodd"/><path fill="#4a86e8" d="m304.8556 45.978985c-2.546051 0 -4.658539 0.88713074 -6.3375244 2.6613846c-1.9346008 2.0649567 -2.901886 4.245186 -2.901886 6.540695l0 3.0974274l5.0519714 -2.2478905l0 -0.77435684c0.025054932 -1.197876 0.4335327 -2.1877518 1.2254028 -2.9696274c0.82196045 -0.80693436 1.7666931 -1.2104034 2.8342285 -1.2104034c1.2429504 0 2.2678833 0.4134941 3.0747986 1.2404785c0.8069153 0.8269844 1.2103577 1.6965714 1.2103577 2.608757l-8.72821 3.5785866c-3.1725159 1.298111 -4.7587585 3.513424 -4.7587585 6.6459427c0 0.060142517 0 0.12029266 0 0.18043518c0 1.7592163 0.6590576 3.3129425 1.9771729 4.6611786c1.8894958 1.7943039 4.057129 2.6914597 6.5029297 2.6914597c1.5486755 0 3.1524658 -0.43605042 4.8114014 -1.308136l-1.9095154 -4.8040314c-1.1076355 0.6766281 -2.0749207 1.0149384 -2.901886 1.0149384c-1.3381653 0 -2.2954407 -0.38342285 -2.8718262 -1.1502609c-0.2956848 -0.40096283 -0.44354248 -0.76934814 -0.44354248 -1.1051483c0 -0.92723083 0.63900757 -1.6915588 1.9170532 -2.293003l6.405182 -2.608757l0 12.637821l5.0519714 -2.2103043l0 -15.675106c0 -2.546112 -0.89712524 -4.716316 -2.6913757 -6.51062c-1.7942505 -1.7943077 -3.9668884 -2.6914597 -6.5179443 -2.6914597z" fill-rule="evenodd"/><path fill="#4a86e8" d="m332.1979 45.978985c-2.546051 0 -4.7161865 0.89715195 -6.510437 2.6914597c-1.7942505 1.7943039 -2.6913757 3.9645119 -2.6913757 6.51062l0 17.88541l5.0519714 -2.2103043l0 -15.607445c0 -0.015037537 0 -0.037590027 0 -0.067661285c0 -1.1226959 0.40847778 -2.0875092 1.2254028 -2.8944473c0.82196045 -0.80693436 1.8193054 -1.2104034 2.992096 -1.2104034c1.1126404 0 2.0799255 0.4034691 2.901886 1.2104034c0.7918701 0.7818756 1.2003174 1.7717514 1.2254028 2.9696274l0 2.6989746l5.0519714 -2.2103043l0 -0.5638504c0 -2.4809532 -0.9021301 -4.648655 -2.706421 -6.5031013c-1.7691956 -1.7993164 -3.9493713 -2.6989784 -6.540497 -2.6989784z" fill-rule="evenodd"/><path fill="#4a86e8" d="m355.42798 45.595566l-5.0519714 2.2103043l0 15.675106c0 2.5461082 0.90463257 4.7163124 2.7139282 6.5106163c1.8092957 1.7943039 3.9869385 2.6914597 6.5329895 2.6914597c1.9897156 0 3.3729858 -0.27816772 4.1498413 -0.8345032l0 0.57888794c-0.025054932 1.197876 -0.4335327 2.1877518 -1.2254028 2.9696274c-0.82196045 0.8069382 -1.7666931 1.2104034 -2.8342285 1.2104034c-1.1076355 0 -2.1099854 -0.41098785 -3.007141 -1.2329559c-0.47109985 -0.4310379 -0.87957764 -1.1101685 -1.2254028 -2.0373917l-4.9467163 1.0600433c0.54629517 1.9346466 1.3908081 3.4733353 2.5335083 4.6160736c1.7942505 1.7943039 3.964386 2.6914597 6.510437 2.6914597c2.5460205 0 4.723694 -0.89715576 6.5329895 -2.6914597c1.8092957 -1.7943039 2.7139282 -3.964508 2.7139282 -6.51062l0 -26.907051l-5.0519714 2.2103043l0 15.607441l0 0.12780762c-0.015045166 1.0976372 -0.41851807 2.0424004 -1.2103882 2.834301c-0.8069153 0.8069382 -1.7416077 1.2104034 -2.8041382 1.2104034c-1.2479553 0 -2.2829285 -0.40346527 -3.1048584 -1.2104034c-0.7918701 -0.7818756 -1.2003479 -1.7717514 -1.2254028 -2.9696236l0 -17.81023z" fill-rule="evenodd"/><path fill="#4a86e8" d="m412.93933 42.4831c1.59375 0 2.964508 0.5688629 4.1122437 1.7065926c1.1527405 1.1377296 1.7290955 2.5009995 1.7290955 4.089813l0 13.261814c0 1.6038513 -0.57385254 2.9646149 -1.7215881 4.0822983c-1.1677551 1.1427383 -2.5410156 1.7141113 -4.119751 1.7141113l-5.8864746 0l0 -24.832077l5.863922 -0.02255249zm-6.758545 -4.8942413l-4.179901 1.8268814l0 32.81623l10.938446 0c3.0071106 0 5.5732117 -1.0500183 7.698242 -3.1500626c2.1300354 -2.1050491 3.1950684 -4.641136 3.1950684 -7.6082497l0 -13.126492c0 -2.9671173 -1.065033 -5.500698 -3.1950684 -7.6007347c-2.1250305 -2.1050491 -4.6911316 -3.1575737 -7.698242 -3.1575737z" fill-rule="evenodd"/><path fill="#4a86e8" d="m440.1388 51.076214c1.2479553 0 2.2829285 0.4034691 3.1048584 1.2104034c0.79190063 0.7818756 1.2003479 1.7717514 1.2254028 2.9696274l0 8.149551c-0.025054932 1.1978722 -0.4335327 2.187748 -1.2254028 2.9696236c-0.82192993 0.8069382 -1.7666931 1.2104034 -2.834198 1.2104034c-1.1176758 0 -2.1200256 -0.40847778 -3.007141 -1.225441c-0.85202026 -0.79190063 -1.2780457 -1.7742538 -1.2780457 -2.947071l0 -8.164585l0 -0.12780762c0.015045166 -1.0976334 0.41851807 -2.0424004 1.2103882 -2.834301c0.8069153 -0.80693436 1.7416382 -1.2104034 2.8041382 -1.2104034zm0.13531494 -5.097229c-2.5460205 0 -4.716156 0.89715195 -6.510437 2.6914597c-1.7942505 1.7943039 -2.6913757 3.9645119 -2.6913757 6.51062l0 8.2999115c0 2.5461082 0.89712524 4.7163124 2.6913757 6.5106163c1.794281 1.7943039 3.9644165 2.6914597 6.510437 2.6914597c2.546051 0 4.7237244 -0.89715576 6.5329895 -2.6914597c1.8092957 -1.7943039 2.7139587 -3.964508 2.7139587 -6.5106163l0 -8.2999115c0 -2.546112 -0.9046631 -4.716316 -2.7139587 -6.51062c-1.8092651 -1.7943077 -3.9869385 -2.6914597 -6.5329895 -2.6914597z" fill-rule="evenodd"/><path fill="#4a86e8" d="m467.65402 45.978985c-2.5460205 0 -4.7161865 0.89715195 -6.510437 2.6914597c-1.7942505 1.7943039 -2.6913757 3.9645119 -2.6913757 6.51062l0 8.2999115c0 2.5461082 0.89712524 4.7163124 2.6913757 6.5106163c1.7942505 1.7943039 3.9644165 2.6914597 6.510437 2.6914597c2.551056 0 4.6660767 -0.88713074 6.3450623 -2.6613846c1.9345703 -2.0649567 2.9018555 -4.245186 2.9018555 -6.5406914l0 -3.0974312l-5.0519714 2.2478905l0 0.77436066c-0.025054932 1.1978722 -0.4335327 2.187748 -1.2254028 2.9696236c-0.82192993 0.8069382 -1.7666931 1.2104034 -2.8342285 1.2104034c-1.1176453 0 -2.1200256 -0.40847778 -3.0071106 -1.225441c-0.85202026 -0.79190063 -1.2780457 -1.7742538 -1.2780457 -2.947071l0 -8.164585c0 -0.015037537 0 -0.037590027 0 -0.067661285c0 -1.1226959 0.40847778 -2.085003 1.2254028 -2.8869286c0.8370056 -0.81194687 1.8343506 -1.2179222 2.992096 -1.2179222c1.1126404 0 2.079956 0.4034691 2.901886 1.2104034c0.7918701 0.7818756 1.2003479 1.7717514 1.2254028 2.9696274l0 2.8869247l5.0519714 -2.2704468l0 -0.691658c0 -2.546112 -0.90463257 -4.716316 -2.7139282 -6.51062c-1.7792053 -1.7943077 -3.9568787 -2.6914597 -6.5329895 -2.6914597z" fill-rule="evenodd"/><path fill="#4a86e8" d="m490.8841 45.595566l-5.0519714 2.2103043l0 15.675106c0 2.5461082 0.9046631 4.7163124 2.7139282 6.5106163c1.8092957 1.7943039 3.986969 2.6914597 6.5329895 2.6914597c2.546051 0 4.7161865 -0.89715576 6.510437 -2.6914597c1.7942505 -1.7943039 2.6913757 -3.964508 2.6913757 -6.5106163l0 -17.88541c-3.367981 1.4735374 -5.0519714 2.2103043 -5.0519714 2.2103043l0 15.607441c0 0.015037537 0 0.037590027 0 0.0676651c0 1.1226921 -0.40344238 2.087513 -1.2103577 2.8944435c-0.8069153 0.8069382 -1.7416382 1.2104034 -2.8041687 1.2104034c-1.2479553 0 -2.282898 -0.40346527 -3.1048584 -1.2104034c-0.7918701 -0.7818756 -1.2003479 -1.7717514 -1.2254028 -2.9696236l0 -17.81023z" fill-rule="evenodd"/><path fill="#4a86e8" d="m518.10614 45.978985c-1.8994751 0 -3.520874 0.6716118 -4.8640137 2.0148354c-1.3432007 1.3432236 -2.014801 2.957096 -2.014801 4.841614l0 20.231041l5.0519714 -2.2103043l0.022583008 -17.907963c0 -0.55633545 0.1854248 -1.0249596 0.5562744 -1.4058762c0.37591553 -0.3859253 0.8069458 -0.57888794 1.2930908 -0.57888794c0.47113037 0 0.8845825 0.19045639 1.2404175 0.571373c0.36090088 0.38091278 0.5413208 0.85204315 0.5413208 1.4133911l-0.022583008 20.118267l5.052002 -2.2103043l0.022521973 -17.907963l0 -0.022556305c0 -0.5312729 0.19049072 -0.99739456 0.5713501 -1.3983536c0.3508911 -0.37590408 0.77685547 -0.5638542 1.2780762 -0.5638542c0.47113037 0 0.8845825 0.19045639 1.2404175 0.571373c0.36083984 0.38091278 0.54125977 0.85204315 0.54125977 1.4133911l-0.022521973 20.118267l5.052002 -2.2103043l0 -17.99818c-0.015075684 -1.9396553 -0.6616211 -3.573574 -1.9396362 -4.90176c-1.2680054 -1.318161 -2.9068604 -1.9772453 -4.916626 -1.9772453c-1.8794556 0 -3.317871 0.4861679 -4.3152466 1.4584999c-0.9522705 -0.972332 -2.4082031 -1.4584999 -4.367859 -1.4584999z" fill-rule="evenodd"/><path fill="#4a86e8" d="m549.65845 51.076214c1.2479248 0 2.282898 0.4034691 3.1048584 1.2104034c0.7367554 0.7317581 1.1276855 1.4685249 1.1727905 2.2103043l-8.292175 3.6988754l0 -2.947071c0 -0.015037537 0 -0.037590027 0 -0.067661285c0 -1.1226959 0.40344238 -2.0875092 1.2103882 -2.8944473c0.80688477 -0.80693436 1.7416382 -1.2104034 2.8041382 -1.2104034zm0.13531494 -5.097229c-2.5460205 0 -4.7161865 0.89715195 -6.510437 2.6914597c-1.7942505 1.7943039 -2.6914062 3.9645119 -2.6914062 6.51062l0 8.2999115c0 2.5461082 0.89715576 4.7163124 2.6914062 6.5106163c1.7942505 1.7943039 3.9644165 2.6914597 6.510437 2.6914597c2.5510254 0 4.6660767 -0.88713074 6.3450317 -2.6613846c1.9345703 -2.0649567 2.9019165 -4.245186 2.9019165 -6.5406914l0 -3.0974312l-5.052002 2.2478905l0 0.77436066c-0.02508545 1.1978722 -0.4335327 2.187748 -1.2254028 2.9696236c-0.82196045 0.8069382 -1.7666626 1.2104034 -2.8342285 1.2104034c-1.2429199 0 -2.2678833 -0.4134903 -3.074768 -1.2404785c-0.8069458 -0.8269806 -1.2103882 -1.7015839 -1.2103882 -2.6237907l13.39679 -5.9542847l0 -2.5862045c0 -2.6463509 -0.90966797 -4.8215675 -2.729004 -6.5256577c-1.8994751 -1.7842789 -4.0721436 -2.676422 -6.5179443 -2.676422z" fill-rule="evenodd"/><path fill="#4a86e8" d="m577.17365 45.978985c-2.5460205 0 -4.7161865 0.89715195 -6.510437 2.6914597c-1.7942505 1.7943039 -2.6913452 3.9645119 -2.6913452 6.51062l0 17.88541l5.051941 -2.2103043l0 -15.607445c0 -0.015037537 0 -0.037590027 0 -0.067661285c0 -1.1176834 0.4085083 -2.0724754 1.2254639 -2.8643723c0.8369751 -0.8269844 1.8343506 -1.2404785 2.9920654 -1.2404785c1.1126099 0 2.079956 0.4034691 2.9018555 1.2104034c0.79193115 0.7818756 1.2003784 1.7717514 1.2254028 2.9696274l0 17.81023l5.052002 -2.2103043l0 -15.675106c0 -2.546112 -0.9046631 -4.716316 -2.7139282 -6.51062c-1.8092651 -1.7943077 -3.9869385 -2.6914597 -6.53302 -2.6914597z" fill-rule="evenodd"/><path fill="#4a86e8" d="m600.40375 36.77691l-5.052002 2.2103043l0 7.442856l-0.9697876 0l-2.210205 5.05212l3.1799927 0l0 11.998787c0 2.5461082 0.9046631 4.7163124 2.7139282 6.5106163c1.8093262 1.7943039 3.9869995 2.6914597 6.53302 2.6914597c2.5460205 0 4.7161865 -0.89715576 6.510437 -2.6914597c1.7942505 -1.7943039 2.6913452 -3.964508 2.6913452 -6.5106163l0 -2.909481c-3.367981 1.4735336 -5.051941 2.2103043 -5.051941 2.2103043c0 1.5837936 -0.4085083 2.7716446 -1.2254028 3.5635452c-0.8369751 0.8269882 -1.8268433 1.2404785 -2.9695435 1.2404785c-1.1126709 0 -2.0874634 -0.40597534 -2.9244385 -1.2179184c-0.7918701 -0.7668457 -1.2003784 -1.7542114 -1.2254028 -2.9621086l0 -11.923607l9.63031 0l2.210266 -5.05212l-11.840576 0l0 -9.65316z" fill-rule="evenodd"/><path fill="#4a86e8" d="m631.97107 45.978985c-2.5460205 0 -4.6585083 0.88713074 -6.3375244 2.6613846c-1.9345703 2.0649567 -2.9018555 4.245186 -2.9018555 6.540695l0 3.0974274l5.051941 -2.2478905l0 -0.77435684c0.02508545 -1.197876 0.4335327 -2.1877518 1.2254028 -2.9696274c0.82196045 -0.80693436 1.7667236 -1.2104034 2.8342285 -1.2104034c1.242981 0 2.2678833 0.4134941 3.074829 1.2404785c0.80688477 0.8269844 1.2103271 1.6965714 1.2103271 2.608757l-8.728149 3.5785866c-3.1725464 1.298111 -4.758789 3.513424 -4.758789 6.6459427c0 0.060142517 0 0.12029266 0 0.18043518c0 1.7592163 0.6590576 3.3129425 1.9771729 4.6611786c1.8894653 1.7943039 4.057129 2.6914597 6.5029297 2.6914597c1.548645 0 3.1524658 -0.43605042 4.8114014 -1.308136l-1.9095459 -4.8040314c-1.107605 0.6766281 -2.0748901 1.0149384 -2.9018555 1.0149384c-1.3381958 0 -2.2954712 -0.38342285 -2.8718262 -1.1502609c-0.29571533 -0.40096283 -0.44354248 -0.76934814 -0.44354248 -1.1051483c0 -0.92723083 0.6390381 -1.6915588 1.9170532 -2.293003l6.4051514 -2.608757l0 12.637821l5.052002 -2.2103043l0 -15.675106c0 -2.546112 -0.89715576 -4.716316 -2.6914062 -6.51062c-1.7942505 -1.7943077 -3.966858 -2.6914597 -6.5179443 -2.6914597z" fill-rule="evenodd"/><path fill="#4a86e8" d="m655.1636 36.77691l-5.052002 2.2103043l0 7.442856l-0.9697876 0l-2.210205 5.05212l3.1799927 0l0 11.998787c0 2.5461082 0.9046631 4.7163124 2.7139282 6.5106163c1.8093262 1.7943039 3.9869385 2.6914597 6.53302 2.6914597c2.5460205 0 4.7161865 -0.89715576 6.510437 -2.6914597c1.7942505 -1.7943039 2.6913452 -3.964508 2.6913452 -6.5106163l0 -2.909481c-3.367981 1.4735336 -5.051941 2.2103043 -5.051941 2.2103043c0 1.5837936 -0.4085083 2.7716446 -1.2254028 3.5635452c-0.8369751 0.8269882 -1.8268433 1.2404785 -2.9695435 1.2404785c-1.1126709 0 -2.0874634 -0.40597534 -2.9244385 -1.2179184c-0.7918701 -0.7668457 -1.2003784 -1.7542114 -1.2254028 -2.9621086l0 -11.923607l9.63031 0l2.210266 -5.05212l-11.840576 0l0 -9.65316z" fill-rule="evenodd"/><path fill="#4a86e8" d="m679.97235 37.16033c-1.0123901 0 -1.8743896 0.36086273 -2.5861206 1.0825958c-0.7116699 0.7217293 -1.0675049 1.5938225 -1.0675049 2.6162758c0 1.0224533 0.35583496 1.8945465 1.0675049 2.6162758c0.71173096 0.7217331 1.5737305 1.0825996 2.5861206 1.0825996c1.0124512 0 1.8744507 -0.36086655 2.5861816 -1.0825996c0.7116699 -0.7217293 1.0675049 -1.5938225 1.0675049 -2.6162758c0 -1.0224533 -0.35583496 -1.8945465 -1.0675049 -2.6162758c-0.71173096 -0.7217331 -1.5737305 -1.0825958 -2.5861816 -1.0825958zm2.571106 8.435234l-5.051941 2.2103043l0 15.675106c0 2.5461082 0.90460205 4.7163124 2.7139282 6.5106163c1.8092651 1.7943039 3.9869385 2.6914597 6.532959 2.6914597c2.5460205 0 4.7161865 -0.89715576 6.510437 -2.6914597c1.7942505 -1.7943039 2.6914062 -3.964508 2.6914062 -6.5106163l0 -2.909481l-5.052002 2.2103043c0 1.4484711 -0.40594482 2.6112595 -1.2178955 3.4883652c-0.81188965 0.8771057 -1.7441406 1.3156586 -2.7966309 1.3156586c-1.2479248 0 -2.282898 -0.40346527 -3.1048584 -1.2104034c-0.7918701 -0.7818756 -1.2003174 -1.7717514 -1.2254028 -2.9696236l0 -17.81023z" fill-rule="evenodd"/><path fill="#4a86e8" d="m713.9379 51.076214c1.2479248 0 2.282898 0.4034691 3.1048584 1.2104034c0.7918701 0.7818756 1.2003174 1.7717514 1.2254028 2.9696274l0 8.149551c-0.02508545 1.1978722 -0.4335327 2.187748 -1.2254028 2.9696236c-0.82196045 0.8069382 -1.7667236 1.2104034 -2.8342285 1.2104034c-1.1176758 0 -2.1200562 -0.40847778 -3.007141 -1.225441c-0.85198975 -0.79190063 -1.2780151 -1.7742538 -1.2780151 -2.947071l0 -8.164585l0 -0.12780762c0.015014648 -1.0976334 0.41845703 -2.0424004 1.2103271 -2.834301c0.8069458 -0.80693436 1.7416382 -1.2104034 2.8041992 -1.2104034zm0.13531494 -5.097229c-2.5460815 0 -4.7162476 0.89715195 -6.510437 2.6914597c-1.7942505 1.7943039 -2.6914062 3.9645119 -2.6914062 6.51062l0 8.2999115c0 2.5461082 0.89715576 4.7163124 2.6914062 6.5106163c1.7942505 1.7943039 3.9644165 2.6914597 6.510437 2.6914597c2.5460205 0 4.723694 -0.89715576 6.532959 -2.6914597c1.8093262 -1.7943039 2.7139282 -3.964508 2.7139282 -6.5106163l0 -8.2999115c0 -2.546112 -0.90460205 -4.716316 -2.7139282 -6.51062c-1.8092651 -1.7943077 -3.9869385 -2.6914597 -6.532959 -2.6914597z" fill-rule="evenodd"/><path fill="#4a86e8" d="m741.4531 45.978985c-2.5460205 0 -4.7161865 0.89715195 -6.510437 2.6914597c-1.7942505 1.7943039 -2.6913452 3.9645119 -2.6913452 6.51062l0 17.88541l5.051941 -2.2103043l0 -15.607445c0 -0.015037537 0 -0.037590027 0 -0.067661285c0 -1.1176834 0.40844727 -2.0724754 1.2254028 -2.8643723c0.8369751 -0.8269844 1.8343506 -1.2404785 2.9921265 -1.2404785c1.1126099 0 2.079895 0.4034691 2.9018555 1.2104034c0.7918701 0.7818756 1.2003174 1.7717514 1.2254028 2.9696274l0 17.81023l5.052002 -2.2103043l0 -15.675106c0 -2.546112 -0.9046631 -4.716316 -2.7139282 -6.51062c-1.8093262 -1.7943077 -3.9869995 -2.6914597 -6.53302 -2.6914597z" fill-rule="evenodd"/><path fill="#4a86e8" d="m771.3816 36.77691l-5.052002 2.2103043l0 26.185318l5.052002 -2.2103004l0 -26.185322zm-2.526001 28.508392c-1.0123901 0 -1.8744507 0.36087036 -2.5861206 1.0826035c-0.71173096 0.72172546 -1.0675049 1.5938187 -1.0675049 2.616272c0 1.0224533 0.35577393 1.8945465 1.0675049 2.6162796c0.7116699 0.7217331 1.5737305 1.0825958 2.5861206 1.0825958c1.0123901 0 1.8744507 -0.36086273 2.5861206 -1.0825958c0.71173096 -0.7217331 1.0675659 -1.5938263 1.0675659 -2.6162796c0 -1.0224533 -0.35583496 -1.8945465 -1.0675659 -2.616272c-0.7116699 -0.7217331 -1.5737305 -1.0826035 -2.5861206 -1.0826035z" fill-rule="evenodd"/><path fill="#000000" fill-opacity="0.0" d="m65.47638 93.59055l769.03937 0l0 80.78741l-769.03937 0z" fill-rule="evenodd"/><path fill="#00ffff" d="m87.434296 109.9443l-5.03125 0l0 -1.453125l11.75 0l0 1.453125l-5.03125 0l0 14.40625l-1.6875 0l0 -14.40625zm9.110916 -1.453125l1.640625 0l0 6.125q0.515625 -0.796875 1.328125 -1.265625q0.8125 -0.484375 1.65625 -0.484375l1.578125 0q1.578125 0 2.53125 1.0625q0.96875 1.0625 0.96875 2.78125l0 7.640625l-1.640625 0l0 -7.6875q0 -1.03125 -0.515625 -1.6875q-0.515625 -0.65625 -1.375 -0.65625l-1.5 0q-1.0625 0 -1.9375 0.828125q-0.875 0.828125 -1.09375 2.109375l0 7.09375l-1.640625 0l0 -15.859375zm14.223404 2.859375q-0.53125 0 -0.875 -0.34375q-0.34375 -0.34375 -0.34375 -0.890625q0 -0.53125 0.34375 -0.875q0.34375 -0.34375 0.875 -0.34375q0.546875 0 0.890625 0.34375q0.34375 0.34375 0.34375 0.875q0 0.546875 -0.34375 0.890625q-0.34375 0.34375 -0.890625 0.34375zm-0.8125 1.6875l1.640625 0l0 11.3125l-1.640625 0l0 -11.3125zm8.70311 11.5q-1.71875 0 -2.765625 -0.96875q-1.046875 -0.984375 -1.046875 -2.578125l1.59375 0q0 0.953125 0.609375 1.546875q0.609375 0.59375 1.609375 0.59375l1.96875 0q0.984375 0 1.59375 -0.390625q0.609375 -0.40625 0.609375 -1.046875l0 -0.765625q0 -0.421875 -0.34375 -0.75q-0.34375 -0.34375 -0.875 -0.453125l-3.921875 -0.671875q-1.1875 -0.203125 -1.90625 -0.890625q-0.703125 -0.703125 -0.703125 -1.625l0 -0.75q0 -1.3125 1.0 -2.109375q1.0 -0.8125 2.625 -0.8125l1.953125 0q1.578125 0 2.546875 0.890625q0.984375 0.890625 0.984375 2.375l-1.59375 0q-0.015625 -0.84375 -0.546875 -1.34375q-0.53125 -0.515625 -1.390625 -0.515625l-1.953125 0q-0.90625 0 -1.453125 0.421875q-0.546875 0.40625 -0.546875 1.09375l0 0.65625q0 0.4375 0.375 0.78125q0.375 0.328125 0.96875 0.421875l3.890625 0.671875q1.140625 0.203125 1.828125 0.890625q0.6875 0.671875 0.6875 1.625l0 0.90625q0 1.25 -1.0625 2.03125q-1.046875 0.765625 -2.765625 0.765625l-1.96875 0zm14.546829 -16.046875l7.703125 0q1.75 0 2.796875 0.984375q1.046875 0.984375 1.046875 2.59375l0 1.65625q0 1.203125 -0.765625 2.125q-0.765625 0.90625 -2.0625 1.296875l0 0.015625q0.6875 0.375 1.234375 1.171875q0.5625 0.78125 0.859375 1.78125l1.234375 4.234375l-1.71875 0l-1.25 -4.234375q-0.3125 -1.109375 -1.09375 -1.78125q-0.78125 -0.6875 -1.703125 -0.6875l-4.609375 0l0 6.703125l-1.671875 0l0 -15.859375zm7.109375 7.65625q1.25 0 2.0 -0.65625q0.765625 -0.671875 0.765625 -1.765625l0 -1.75q0 -0.90625 -0.609375 -1.4375q-0.609375 -0.546875 -1.609375 -0.546875l-5.984375 0l0 6.15625l5.4375 0zm9.085907 8.203125q-0.703125 0 -1.09375 -0.390625q-0.375 -0.40625 -0.375 -1.109375l0 -14.359375l10.640625 0l0 1.453125l-8.96875 0l0 5.578125l8.296875 0l0 1.4375l-8.296875 0l0 5.9375l8.96875 0l0 1.453125l-9.171875 0zm21.12497 -4.390625l-6.96875 0l-1.625 4.390625l-1.71875 0l6.09375 -15.859375l0.765625 0q0.75 0 1.09375 0.90625l3.484375 9.15625l0.03125 0l0 0.046875l2.1875 5.75l-1.71875 0l-1.625 -4.390625zm-6.4375 -1.40625l5.90625 0l-2.9375 -7.890625l-0.03125 0l-2.9375 7.890625zm13.428818 5.796875q-0.703125 0 -1.09375 -0.375q-0.375 -0.390625 -0.375 -1.09375l0 -14.390625l6.5625 0q1.6875 0 2.953125 0.65625q1.265625 0.640625 1.96875 1.828125q0.703125 1.1875 0.703125 2.734375l0 4.984375q0 2.78125 -1.40625 4.21875q-1.40625 1.4375 -4.125 1.4375l-5.1875 0zm5.140625 -1.5q1.9375 0 2.921875 -1.046875q0.984375 -1.0625 0.984375 -3.109375l0 -4.984375q0 -1.65625 -1.109375 -2.6875q-1.09375 -1.03125 -2.875 -1.03125l-4.859375 0l0 12.859375l4.9375 0zm8.660904 -14.359375l1.609375 0l5.65625 10.53125l5.515625 -10.53125l1.609375 0l0 15.859375l-1.65625 0l0 -12.734375l-4.578125 8.703125q-0.25 0.453125 -0.4375 0.625q-0.171875 0.171875 -0.40625 0.171875l-0.5 0l-5.15625 -9.5l0 12.734375l-1.65625 0l0 -15.859375zm19.480438 15.859375q-0.703125 0 -1.09375 -0.390625q-0.375 -0.40625 -0.375 -1.109375l0 -14.359375l10.640625 0l0 1.453125l-8.96875 0l0 5.578125l8.296875 0l0 1.4375l-8.296875 0l0 5.9375l8.96875 0l0 1.453125l-9.171875 0zm27.29683 0l-1.625 0l0 -9.90625l-4.984375 0l0 9.90625l-1.625 0l0 -9.90625l-1.953125 0l0 -1.4375l1.953125 0l0 -0.84375q0 -1.859375 0.9375 -2.8125q0.953125 -0.953125 2.796875 -0.953125l2.90625 0l0 1.40625l-2.90625 0q-1.09375 0 -1.609375 0.578125q-0.5 0.578125 -0.5 1.78125l0 0.84375l6.609375 0l0 11.34375zm6.57341 0q-1.671875 0 -2.40625 -0.703125q-0.71875 -0.71875 -0.71875 -2.375l0 -12.78125l1.640625 0l0 12.78125q0 0.859375 0.34375 1.25q0.359375 0.375 1.140625 0.375l0.78125 0l0 1.453125l-0.78125 0zm6.712494 0.1875q-1.90625 0 -3.0625 -1.125q-1.15625 -1.125 -1.15625 -2.984375l0 -3.234375q0 -1.953125 1.15625 -3.140625q1.15625 -1.1875 3.0625 -1.1875l1.859375 0q1.8125 0 2.921875 1.15625q1.109375 1.15625 1.109375 3.0625l0 1.984375l-8.46875 0l0 1.359375q0 1.1875 0.703125 1.921875q0.71875 0.734375 1.875 0.734375l1.71875 0q1.140625 0 1.828125 -0.625q0.703125 -0.625 0.703125 -1.671875l1.59375 0q0 1.6875 -1.140625 2.71875q-1.125 1.03125 -2.984375 1.03125l-1.71875 0zm4.25 -6.875l0 -0.578125q0 -1.25 -0.65625 -2.0q-0.65625 -0.765625 -1.734375 -0.765625l-1.859375 0q-1.15625 0 -1.875 0.796875q-0.703125 0.78125 -0.703125 2.078125l0 0.46875l6.828125 0zm11.599945 -6.3125q-0.53125 0 -0.875 -0.34375q-0.34375 -0.34375 -0.34375 -0.890625q0 -0.53125 0.34375 -0.875q0.34375 -0.34375 0.875 -0.34375q0.546875 0 0.890625 0.34375q0.34375 0.34375 0.34375 0.875q0 0.546875 -0.34375 0.890625q-0.34375 0.34375 -0.890625 0.34375zm-0.8125 1.6875l1.640625 0l0 11.3125l-1.640625 0l0 -11.3125zm8.703125 11.5q-1.71875 0 -2.765625 -0.96875q-1.046875 -0.984375 -1.046875 -2.578125l1.59375 0q0 0.953125 0.609375 1.546875q0.609375 0.59375 1.609375 0.59375l1.96875 0q0.984375 0 1.59375 -0.390625q0.609375 -0.40625 0.609375 -1.046875l0 -0.765625q0 -0.421875 -0.34375 -0.75q-0.34375 -0.34375 -0.875 -0.453125l-3.921875 -0.671875q-1.1875 -0.203125 -1.90625 -0.890625q-0.703125 -0.703125 -0.703125 -1.625l0 -0.75q0 -1.3125 1.0 -2.109375q1.0 -0.8125 2.625 -0.8125l1.953125 0q1.578125 0 2.546875 0.890625q0.984375 0.890625 0.984375 2.375l-1.59375 0q-0.015625 -0.84375 -0.546875 -1.34375q-0.53125 -0.515625 -1.390625 -0.515625l-1.953125 0q-0.90625 0 -1.453125 0.421875q-0.546875 0.40625 -0.546875 1.09375l0 0.65625q0 0.4375 0.375 0.78125q0.375 0.328125 0.96875 0.421875l3.890625 0.671875q1.140625 0.203125 1.828125 0.890625q0.6875 0.671875 0.6875 1.625l0 0.90625q0 1.25 -1.0625 2.03125q-1.046875 0.765625 -2.765625 0.765625l-1.96875 0zm18.890564 -0.1875q-1.78125 0 -2.5625 -0.765625q-0.78125 -0.78125 -0.78125 -2.546875l0 -6.546875l-2.0 0l0 -1.453125l2.0 0l0 -3.40625l1.625 0l0 3.40625l2.953125 0l0 1.453125l-2.953125 0l0 6.546875q0 1.0 0.390625 1.4375q0.40625 0.421875 1.328125 0.421875l1.234375 0l0 1.453125l-1.234375 0zm7.620117 0.1875q-1.90625 0 -3.0625 -1.125q-1.15625 -1.125 -1.15625 -2.984375l0 -3.234375q0 -1.953125 1.15625 -3.140625q1.15625 -1.1875 3.0625 -1.1875l1.859375 0q1.8125 0 2.921875 1.15625q1.109375 1.15625 1.109375 3.0625l0 1.984375l-8.46875 0l0 1.359375q0 1.1875 0.703125 1.921875q0.71875 0.734375 1.875 0.734375l1.71875 0q1.140625 0 1.828125 -0.625q0.703125 -0.625 0.703125 -1.671875l1.59375 0q0 1.6875 -1.140625 2.71875q-1.125 1.03125 -2.984375 1.03125l-1.71875 0zm4.25 -6.875l0 -0.578125q0 -1.25 -0.65625 -2.0q-0.65625 -0.765625 -1.734375 -0.765625l-1.859375 0q-1.15625 0 -1.875 0.796875q-0.703125 0.78125 -0.703125 2.078125l0 0.46875l6.828125 0zm16.881256 -4.796875q1.5 0 2.375 0.96875q0.875 0.953125 0.875 2.65625l0 7.859375l-1.640625 0l0 -7.90625q0 -1.0 -0.453125 -1.5625q-0.453125 -0.5625 -1.203125 -0.5625l-1.2812805 0q-0.984375 0 -1.625 0.65625q-0.625 0.65625 -0.796875 1.859375l0 7.515625l-1.640625 0l0 -7.765625q0 -1.0625 -0.421875 -1.65625q-0.40625 -0.609375 -1.140625 -0.609375l-1.28125 0q-0.9375 0 -1.640625 0.8125q-0.703125 0.8125 -0.875 2.125l0 7.09375l-1.640625 0l0 -11.3125l1.59375 0l0 1.640625q0.453125 -0.859375 1.125 -1.328125q0.6875 -0.484375 1.4375 -0.484375l1.328125 0q0.953125 0 1.640625 0.46875q0.6875 0.453125 1.0625 1.34375q0.515625 -0.90625 1.234375 -1.359375q0.734375 -0.453125 1.59375 -0.453125l1.3750305 0zm6.5499268 0.171875l1.59375 0l0 1.546875q0.46875 -0.765625 1.25 -1.234375q0.78125 -0.484375 1.578125 -0.484375l1.625 0q1.8125 0 2.9375 1.15625q1.125 1.15625 1.125 3.0625l0 2.78125q0 2.109375 -1.15625 3.390625q-1.140625 1.28125 -3.015625 1.28125l-1.625 0q-0.703125 0 -1.484375 -0.390625q-0.765625 -0.40625 -1.1875 -1.046875l0 5.7656326l-1.640625 0l0 -15.828133zm5.890625 10.046875q1.1875 0 1.875 -0.875q0.703125 -0.890625 0.703125 -2.34375l0 -2.78125q0 -1.25 -0.6875 -2.0q-0.671875 -0.765625 -1.78125 -0.765625l-1.578125 0q-0.953125 0 -1.734375 0.734375q-0.765625 0.734375 -1.046875 1.890625l0 3.390625q0.15625 1.203125 0.921875 1.984375q0.765625 0.765625 1.828125 0.765625l1.5 0zm10.970306 1.453125q-1.90625 0 -3.0625 -1.171875q-1.15625 -1.1875 -1.15625 -3.109375l0 -3.109375q0 -1.921875 1.171875 -3.09375q1.171875 -1.1875 3.09375 -1.1875l1.859375 0q1.921875 0 3.078125 1.1875q1.171875 1.171875 1.171875 3.09375l0 3.109375q0 1.921875 -1.1875 3.109375q-1.171875 1.171875 -3.109375 1.171875l-1.859375 0zm1.859375 -1.453125q1.21875 0 1.9375 -0.78125q0.734375 -0.78125 0.734375 -2.046875l0 -3.109375q0 -1.265625 -0.734375 -2.046875q-0.71875 -0.78125 -1.890625 -0.78125l-1.859375 0q-1.1875 0 -1.90625 0.78125q-0.71875 0.78125 -0.71875 2.046875l0 3.109375q0 1.28125 0.6875 2.0625q0.703125 0.765625 1.890625 0.765625l1.859375 0zm7.289032 -10.046875l1.59375 0l0 1.75q0.453125 -0.796875 1.359375 -1.28125q0.921875 -0.5 1.921875 -0.5l1.0 0l0 1.46875l-1.0 0q-1.453125 0 -2.34375 0.921875q-0.890625 0.90625 -0.890625 2.421875l0 6.53125l-1.640625 0l0 -11.3125zm10.945892 11.5q-1.65625 0 -2.640625 -0.859375q-0.984375 -0.875 -0.984375 -2.3125l0 -0.734375q0 -1.421875 1.015625 -2.28125q1.015625 -0.859375 2.703125 -0.859375l1.453125 0q0.734375 0 1.53125 0.234375q0.796875 0.21875 1.359375 0.59375l0 -1.875q0 -0.953125 -0.59375 -1.546875q-0.578125 -0.609375 -1.5625 -0.609375l-1.8125 0q-0.96875 0 -1.5625 0.453125q-0.578125 0.453125 -0.578125 1.203125l-1.640625 0q0 -1.375 1.046875 -2.21875q1.046875 -0.859375 2.734375 -0.859375l1.8125 0q1.6875 0 2.71875 0.984375q1.03125 0.984375 1.03125 2.59375l0 7.90625l-1.546875 0l0 -1.578125q-0.515625 0.8125 -1.375 1.296875q-0.84375 0.46875 -1.75 0.46875l-1.359375 0zm1.40625 -1.4375q1.0625 0 1.890625 -0.65625q0.84375 -0.65625 1.140625 -1.734375l0 -0.84375q-0.453125 -0.4375 -1.265625 -0.6875q-0.796875 -0.265625 -1.625 -0.265625l-1.453125 0q-0.9375 0 -1.515625 0.484375q-0.578125 0.46875 -0.578125 1.234375l0 0.734375q0 0.78125 0.546875 1.265625q0.546875 0.46875 1.453125 0.46875l1.40625 0zm7.924988 -10.0625l1.59375 0l0 1.75q0.453125 -0.796875 1.359375 -1.28125q0.921875 -0.5 1.921875 -0.5l1.0 0l0 1.46875l-1.0 0q-1.453125 0 -2.34375 0.921875q-0.890625 0.90625 -0.890625 2.421875l0 6.53125l-1.640625 0l0 -11.3125zm11.699219 15.906258q-1.5 0 -2.484375 -0.8125q-0.96875 -0.7968826 -1.078125 -2.1093826l1.625 0q0.09375 0.6875 0.625 1.09375q0.53125 0.421875 1.3125 0.421875l1.765625 0q1.171875 0 1.8125 -0.78125q0.65625 -0.78125 0.65625 -2.1875l0 -2.078125q-0.546875 0.8125 -1.375 1.34375q-0.828125 0.515625 -1.640625 0.515625l-1.453125 0q-1.578125 0 -2.578125 -1.0625q-0.984375 -1.0625 -0.984375 -2.78125l0 -7.46875l1.640625 0l0 7.5q0 1.078125 0.53125 1.71875q0.53125 0.640625 1.390625 0.640625l1.40625 0q1.046875 0 1.921875 -0.828125q0.890625 -0.84375 1.140625 -2.109375l0 -6.921875l1.625 0l0 11.53125q0 2.0625 -1.09375 3.21875q-1.078125 1.1562576 -3.0 1.1562576l-1.765625 0zm18.45935 -4.4062576q-1.65625 0 -2.640625 -0.859375q-0.984375 -0.875 -0.984375 -2.3125l0 -0.734375q0 -1.421875 1.015625 -2.28125q1.015625 -0.859375 2.703125 -0.859375l1.453125 0q0.734375 0 1.53125 0.234375q0.796875 0.21875 1.359375 0.59375l0 -1.875q0 -0.953125 -0.59375 -1.546875q-0.578125 -0.609375 -1.5625 -0.609375l-1.8125 0q-0.96875 0 -1.5625 0.453125q-0.578125 0.453125 -0.578125 1.203125l-1.640625 0q0 -1.375 1.046875 -2.21875q1.046875 -0.859375 2.734375 -0.859375l1.8125 0q1.6875 0 2.71875 0.984375q1.03125 0.984375 1.03125 2.59375l0 7.90625l-1.546875 0l0 -1.578125q-0.515625 0.8125 -1.375 1.296875q-0.84375 0.46875 -1.75 0.46875l-1.359375 0zm1.40625 -1.4375q1.0625 0 1.890625 -0.65625q0.84375 -0.65625 1.140625 -1.734375l0 -0.84375q-0.453125 -0.4375 -1.265625 -0.6875q-0.796875 -0.265625 -1.625 -0.265625l-1.453125 0q-0.9375 0 -1.515625 0.484375q-0.578125 0.46875 -0.578125 1.234375l0 0.734375q0 0.78125 0.546875 1.265625q0.546875 0.46875 1.453125 0.46875l1.40625 0zm7.924988 -10.0625l1.59375 0l0 1.6875q0.515625 -0.8125 1.34375 -1.328125q0.84375 -0.53125 1.6875 -0.53125l1.546875 0q1.5625 0 2.515625 1.0625q0.96875 1.0625 0.96875 2.78125l0 7.640625l-1.640625 0l0 -7.6875q0 -1.03125 -0.515625 -1.6875q-0.515625 -0.65625 -1.375 -0.65625l-1.453125 0q-1.0625 0 -1.9375 0.84375q-0.875 0.828125 -1.09375 2.140625l0 7.046875l-1.640625 0l0 -11.3125zm16.474976 11.5q-1.15625 0 -2.0625 -0.546875q-0.90625 -0.546875 -1.40625 -1.515625q-0.5 -0.984375 -0.5 -2.265625l0 -2.71875q0 -1.359375 0.515625 -2.40625q0.53125 -1.0625 1.484375 -1.640625q0.953125 -0.578125 2.171875 -0.578125l1.671875 0q0.78125 0 1.484375 0.359375q0.71875 0.359375 1.140625 1.0l0 -5.734375l1.640625 0l0 15.859375l-1.59375 0l0 -1.671875q-0.515625 0.828125 -1.359375 1.34375q-0.828125 0.515625 -1.625 0.515625l-1.5625 0zm1.515625 -1.453125q0.71875 0 1.390625 -0.46875q0.6875 -0.46875 1.125 -1.203125q0.4375 -0.75 0.46875 -1.546875l0 -2.859375q-0.15625 -1.203125 -0.890625 -1.9375q-0.734375 -0.75 -1.78125 -0.75l-1.578125 0q-1.15625 0 -1.875 0.875q-0.703125 0.859375 -0.703125 2.296875l0 2.71875q0 1.265625 0.65625 2.078125q0.671875 0.796875 1.71875 0.796875l1.46875 0zm26.345276 -10.21875q1.5 0 2.375 0.96875q0.875 0.953125 0.875 2.65625l0 7.859375l-1.640625 0l0 -7.90625q0 -1.0 -0.453125 -1.5625q-0.453125 -0.5625 -1.203125 -0.5625l-1.28125 0q-0.984375 0 -1.625 0.65625q-0.625 0.65625 -0.796875 1.859375l0 7.515625l-1.640625 0l0 -7.765625q0 -1.0625 -0.421875 -1.65625q-0.40625 -0.609375 -1.140625 -0.609375l-1.28125 0q-0.9375 0 -1.640625 0.8125q-0.703125 0.8125 -0.875 2.125l0 7.09375l-1.640625 0l0 -11.3125l1.59375 0l0 1.640625q0.453125 -0.859375 1.125 -1.328125q0.6875 -0.484375 1.4375 -0.484375l1.328125 0q0.953125 0 1.640625 0.46875q0.6875 0.453125 1.0625 1.34375q0.515625 -0.90625 1.234375 -1.359375q0.734375 -0.453125 1.59375 -0.453125l1.375 0zm9.815582 11.671875q-1.65625 0 -2.640625 -0.859375q-0.984375 -0.875 -0.984375 -2.3125l0 -0.734375q0 -1.421875 1.015625 -2.28125q1.015625 -0.859375 2.703125 -0.859375l1.453125 0q0.734375 0 1.53125 0.234375q0.796875 0.21875 1.359375 0.59375l0 -1.875q0 -0.953125 -0.59375 -1.546875q-0.578125 -0.609375 -1.5625 -0.609375l-1.8125 0q-0.96875 0 -1.5625 0.453125q-0.578125 0.453125 -0.578125 1.203125l-1.640625 0q0 -1.375 1.046875 -2.21875q1.046875 -0.859375 2.734375 -0.859375l1.8125 0q1.6875 0 2.71875 0.984375q1.03125 0.984375 1.03125 2.59375l0 7.90625l-1.546875 0l0 -1.578125q-0.515625 0.8125 -1.375 1.296875q-0.84375 0.46875 -1.75 0.46875l-1.359375 0zm1.40625 -1.4375q1.0625 0 1.890625 -0.65625q0.84375 -0.65625 1.140625 -1.734375l0 -0.84375q-0.453125 -0.4375 -1.265625 -0.6875q-0.796875 -0.265625 -1.625 -0.265625l-1.453125 0q-0.9375 0 -1.515625 0.484375q-0.578125 0.46875 -0.578125 1.234375l0 0.734375q0 0.78125 0.546875 1.265625q0.546875 0.46875 1.453125 0.46875l1.40625 0zm11.581207 5.8437576q-1.5 0 -2.484375 -0.8125q-0.96875 -0.7968826 -1.078125 -2.1093826l1.625 0q0.09375 0.6875 0.625 1.09375q0.53125 0.421875 1.3125 0.421875l1.765625 0q1.171875 0 1.8125 -0.78125q0.65625 -0.78125 0.65625 -2.1875l0 -2.078125q-0.546875 0.8125 -1.375 1.34375q-0.828125 0.515625 -1.640625 0.515625l-1.453125 0q-1.578125 0 -2.578125 -1.0625q-0.984375 -1.0625 -0.984375 -2.78125l0 -7.46875l1.640625 0l0 7.5q0 1.078125 0.53125 1.71875q0.53125 0.640625 1.390625 0.640625l1.40625 0q1.046875 0 1.921875 -0.828125q0.890625 -0.84375 1.140625 -2.109375l0 -6.921875l1.625 0l0 11.53125q0 2.0625 -1.09375 3.21875q-1.078125 1.1562576 -3.0 1.1562576l-1.765625 0zm15.193726 -15.906258l1.59375 0l0 1.6875q0.515625 -0.8125 1.34375 -1.328125q0.84375 -0.53125 1.6875 -0.53125l1.546875 0q1.5625 0 2.515625 1.0625q0.96875 1.0625 0.96875 2.78125l0 7.640625l-1.640625 0l0 -7.6875q0 -1.03125 -0.515625 -1.6875q-0.515625 -0.65625 -1.375 -0.65625l-1.453125 0q-1.0625 0 -1.9375 0.84375q-0.875 0.828125 -1.09375 2.140625l0 7.046875l-1.640625 0l0 -11.3125zm16.724945 11.5q-1.90625 0 -3.0624695 -1.171875q-1.15625 -1.1875 -1.15625 -3.109375l0 -3.109375q0 -1.921875 1.171875 -3.09375q1.1718445 -1.1875 3.0937195 -1.1875l1.859375 0q1.921875 0 3.078125 1.1875q1.171875 1.171875 1.171875 3.09375l0 3.109375q0 1.921875 -1.1875 3.109375q-1.171875 1.171875 -3.109375 1.171875l-1.859375 0zm1.859375 -1.453125q1.21875 0 1.9375 -0.78125q0.734375 -0.78125 0.734375 -2.046875l0 -3.109375q0 -1.265625 -0.734375 -2.046875q-0.71875 -0.78125 -1.890625 -0.78125l-1.859375 0q-1.1875 0 -1.90625 0.78125q-0.7187195 0.78125 -0.7187195 2.046875l0 3.109375q0 1.28125 0.6874695 2.0625q0.703125 0.765625 1.890625 0.765625l1.859375 0zm11.590515 1.265625q-1.78125 0 -2.5625 -0.765625q-0.78125 -0.78125 -0.78125 -2.546875l0 -6.546875l-2.0 0l0 -1.453125l2.0 0l0 -3.40625l1.625 0l0 3.40625l2.953125 0l0 1.453125l-2.953125 0l0 6.546875q0 1.0 0.390625 1.4375q0.40625 0.421875 1.328125 0.421875l1.234375 0l0 1.453125l-1.234375 0zm11.326538 -13.0q-0.53125 0 -0.875 -0.34375q-0.34375 -0.34375 -0.34375 -0.890625q0 -0.53125 0.34375 -0.875q0.34375 -0.34375 0.875 -0.34375q0.546875 0 0.890625 0.34375q0.34375 0.34375 0.34375 0.875q0 0.546875 -0.34375 0.890625q-0.34375 0.34375 -0.890625 0.34375zm-0.8125 1.6875l1.640625 0l0 11.3125l-1.640625 0l0 -11.3125zm5.484375 0l1.59375 0l0 1.6875q0.515625 -0.8125 1.34375 -1.328125q0.84375 -0.53125 1.6875 -0.53125l1.546875 0q1.5625 0 2.515625 1.0625q0.96875 1.0625 0.96875 2.78125l0 7.640625l-1.640625 0l0 -7.6875q0 -1.03125 -0.515625 -1.6875q-0.515625 -0.65625 -1.375 -0.65625l-1.453125 0q-1.0625 0 -1.9375 0.84375q-0.875 0.828125 -1.09375 2.140625l0 7.046875l-1.640625 0l0 -11.3125zm16.631226 11.5q-1.859375 0 -3.0 -1.125q-1.125 -1.125 -1.125 -2.984375l0 -3.234375q0 -1.953125 1.125 -3.140625q1.140625 -1.1875 2.984375 -1.1875l1.859375 0q1.734375 0 2.796875 0.984375q1.0625 0.96875 1.0625 2.546875l-1.578125 0q0 -0.921875 -0.625 -1.5q-0.625 -0.578125 -1.65625 -0.578125l-1.859375 0q-1.109375 0 -1.796875 0.796875q-0.671875 0.78125 -0.671875 2.078125l0 3.234375q0 1.203125 0.6875 1.9375q0.6875 0.71875 1.796875 0.71875l1.859375 0q1.0625 0 1.703125 -0.75q0.65625 -0.75 0.65625 -2.0l1.578125 0q0 1.890625 -1.09375 3.046875q-1.078125 1.15625 -2.84375 1.15625l-1.859375 0zm11.596863 -0.1875q-1.671875 0 -2.40625 -0.703125q-0.71875 -0.71875 -0.71875 -2.375l0 -12.78125l1.640625 0l0 12.78125q0 0.859375 0.34375 1.25q0.359375 0.375 1.140625 0.375l0.78125 0l0 1.453125l-0.78125 0zm6.3218994 0.1875q-1.5625 0 -2.546875 -1.0625q-0.96875 -1.078125 -0.96875 -2.796875l0 -7.640625l1.640625 0l0 7.6875q0 1.0625 0.515625 1.71875q0.53125 0.640625 1.359375 0.640625l1.40625 0q1.046875 0 1.921875 -0.828125q0.890625 -0.84375 1.140625 -2.125l0 -7.09375l1.625 0l0 11.3125l-1.578125 0l0 -1.71875q-0.53125 0.8125 -1.390625 1.359375q-0.859375 0.546875 -1.671875 0.546875l-1.453125 0zm13.0546875 0q-1.15625 0 -2.0625 -0.546875q-0.90625 -0.546875 -1.40625 -1.515625q-0.5 -0.984375 -0.5 -2.265625l0 -2.71875q0 -1.359375 0.515625 -2.40625q0.53125 -1.0625 1.484375 -1.640625q0.953125 -0.578125 2.171875 -0.578125l1.671875 0q0.78125 0 1.484375 0.359375q0.71875 0.359375 1.140625 1.0l0 -5.734375l1.640625 0l0 15.859375l-1.59375 0l0 -1.671875q-0.515625 0.828125 -1.359375 1.34375q-0.828125 0.515625 -1.625 0.515625l-1.5625 0zm1.515625 -1.453125q0.71875 0 1.390625 -0.46875q0.6875 -0.46875 1.125 -1.203125q0.4375 -0.75 0.46875 -1.546875l0 -2.859375q-0.15625 -1.203125 -0.890625 -1.9375q-0.734375 -0.75 -1.78125 -0.75l-1.578125 0q-1.15625 0 -1.875 0.875q-0.703125 0.859375 -0.703125 2.296875l0 2.71875q0 1.265625 0.65625 2.078125q0.671875 0.796875 1.71875 0.796875l1.46875 0zm11.82959 1.453125q-1.90625 0 -3.0625 -1.125q-1.15625 -1.125 -1.15625 -2.984375l0 -3.234375q0 -1.953125 1.15625 -3.140625q1.15625 -1.1875 3.0625 -1.1875l1.859375 0q1.8125 0 2.921875 1.15625q1.109375 1.15625 1.109375 3.0625l0 1.984375l-8.46875 0l0 1.359375q0 1.1875 0.703125 1.921875q0.71875 0.734375 1.875 0.734375l1.71875 0q1.140625 0 1.828125 -0.625q0.703125 -0.625 0.703125 -1.671875l1.59375 0q0 1.6875 -1.140625 2.71875q-1.125 1.03125 -2.984375 1.03125l-1.71875 0zm4.25 -6.875l0 -0.578125q0 -1.25 -0.65625 -2.0q-0.65625 -0.765625 -1.734375 -0.765625l-1.859375 0q-1.15625 0 -1.875 0.796875q-0.703125 0.78125 -0.703125 2.078125l0 0.46875l6.828125 0zm11.521851 -3.171875l-1.953125 0l0 -1.453125l1.953125 0l0 -0.875q0 -1.859375 0.9375 -2.8125q0.953125 -0.953125 2.796875 -0.953125l0.859375 0l0 1.40625l-0.859375 0q-1.09375 0 -1.609375 0.578125q-0.5 0.578125 -0.5 1.78125l0 0.875l2.71875 0l0 1.453125l-2.71875 0l0 9.859375l-1.625 0l0 -9.859375zm10.36792 10.046875q-1.5625 0 -2.546875 -1.0625q-0.96875 -1.078125 -0.96875 -2.796875l0 -7.640625l1.640625 0l0 7.6875q0 1.0625 0.515625 1.71875q0.53125 0.640625 1.359375 0.640625l1.40625 0q1.046875 0 1.921875 -0.828125q0.890625 -0.84375 1.140625 -2.125l0 -7.09375l1.625 0l0 11.3125l-1.578125 0l0 -1.71875q-0.53125 0.8125 -1.390625 1.359375q-0.859375 0.546875 -1.671875 0.546875l-1.453125 0zm12.6640625 -0.1875q-1.671875 0 -2.40625 -0.703125q-0.71875 -0.71875 -0.71875 -2.375l0 -12.78125l1.640625 0l0 12.78125q0 0.859375 0.34375 1.25q0.359375 0.375 1.140625 0.375l0.78125 0l0 1.453125l-0.78125 0zm5.935913 0q-1.671875 0 -2.40625 -0.703125q-0.71875 -0.71875 -0.71875 -2.375l0 -12.78125l1.640625 0l0 12.78125q0 0.859375 0.34375 1.25q0.359375 0.375 1.140625 0.375l0.78125 0l0 1.453125l-0.78125 0zm12.353027 0.1875q-1.15625 0 -2.0625 -0.546875q-0.90625 -0.546875 -1.40625 -1.515625q-0.5 -0.984375 -0.5 -2.265625l0 -2.71875q0 -1.359375 0.515625 -2.40625q0.53125 -1.0625 1.484375 -1.640625q0.953125 -0.578125 2.171875 -0.578125l1.671875 0q0.78125 0 1.484375 0.359375q0.71875 0.359375 1.140625 1.0l0 -5.734375l1.640625 0l0 15.859375l-1.59375 0l0 -1.671875q-0.515625 0.828125 -1.359375 1.34375q-0.828125 0.515625 -1.625 0.515625l-1.5625 0zm1.515625 -1.453125q0.71875 0 1.390625 -0.46875q0.6875 -0.46875 1.125 -1.203125q0.4375 -0.75 0.46875 -1.546875l0 -2.859375q-0.15625 -1.203125 -0.890625 -1.9375q-0.734375 -0.75 -1.78125 -0.75l-1.578125 0q-1.15625 0 -1.875 0.875q-0.703125 0.859375 -0.703125 2.296875l0 2.71875q0 1.265625 0.65625 2.078125q0.671875 0.796875 1.71875 0.796875l1.46875 0zm11.829712 1.453125q-1.90625 0 -3.0625 -1.171875q-1.15625 -1.1875 -1.15625 -3.109375l0 -3.109375q0 -1.921875 1.171875 -3.09375q1.171875 -1.1875 3.09375 -1.1875l1.859375 0q1.921875 0 3.078125 1.1875q1.171875 1.171875 1.171875 3.09375l0 3.109375q0 1.921875 -1.1875 3.109375q-1.171875 1.171875 -3.109375 1.171875l-1.859375 0zm1.859375 -1.453125q1.21875 0 1.9375 -0.78125q0.734375 -0.78125 0.734375 -2.046875l0 -3.109375q0 -1.265625 -0.734375 -2.046875q-0.71875 -0.78125 -1.890625 -0.78125l-1.859375 0q-1.1875 0 -1.90625 0.78125q-0.71875 0.78125 -0.71875 2.046875l0 3.109375q0 1.28125 0.6875 2.0625q0.703125 0.765625 1.890625 0.765625l1.859375 0zm10.960815 1.453125q-1.859375 0 -3.0 -1.125q-1.125 -1.125 -1.125 -2.984375l0 -3.234375q0 -1.953125 1.125 -3.140625q1.140625 -1.1875 2.984375 -1.1875l1.859375 0q1.734375 0 2.796875 0.984375q1.0625 0.96875 1.0625 2.546875l-1.578125 0q0 -0.921875 -0.625 -1.5q-0.625 -0.578125 -1.65625 -0.578125l-1.859375 0q-1.109375 0 -1.796875 0.796875q-0.671875 0.78125 -0.671875 2.078125l0 3.234375q0 1.203125 0.6875 1.9375q0.6875 0.71875 1.796875 0.71875l1.859375 0q1.0625 0 1.703125 -0.75q0.65625 -0.75 0.65625 -2.0l1.578125 0q0 1.890625 -1.09375 3.046875q-1.078125 1.15625 -2.84375 1.15625l-1.859375 0zm11.846924 0q-1.5625 0 -2.546875 -1.0625q-0.96875 -1.078125 -0.96875 -2.796875l0 -7.640625l1.640625 0l0 7.6875q0 1.0625 0.515625 1.71875q0.53125 0.640625 1.359375 0.640625l1.40625 0q1.046875 0 1.921875 -0.828125q0.890625 -0.84375 1.140625 -2.125l0 -7.09375l1.625 0l0 11.3125l-1.578125 0l0 -1.71875q-0.53125 0.8125 -1.390625 1.359375q-0.859375 0.546875 -1.671875 0.546875l-1.453125 0zm21.929565 -11.671875q1.5 0 2.375 0.96875q0.875 0.953125 0.875 2.65625l0 7.859375l-1.640625 0l0 -7.90625q0 -1.0 -0.453125 -1.5625q-0.453125 -0.5625 -1.203125 -0.5625l-1.28125 0q-0.984375 0 -1.625 0.65625q-0.625 0.65625 -0.796875 1.859375l0 7.515625l-1.640625 0l0 -7.765625q0 -1.0625 -0.421875 -1.65625q-0.40625 -0.609375 -1.140625 -0.609375l-1.28125 0q-0.9375 0 -1.640625 0.8125q-0.703125 0.8125 -0.875 2.125l0 7.09375l-1.640625 0l0 -11.3125l1.59375 0l0 1.640625q0.453125 -0.859375 1.125 -1.328125q0.6875 -0.484375 1.4375 -0.484375l1.328125 0q0.953125 0 1.640625 0.46875q0.6875 0.453125 1.0625 1.34375q0.515625 -0.90625 1.234375 -1.359375q0.734375 -0.453125 1.59375 -0.453125l1.375 0zm10.315552 11.671875q-1.90625 0 -3.0625 -1.125q-1.15625 -1.125 -1.15625 -2.984375l0 -3.234375q0 -1.953125 1.15625 -3.140625q1.15625 -1.1875 3.0625 -1.1875l1.859375 0q1.8125 0 2.921875 1.15625q1.109375 1.15625 1.109375 3.0625l0 1.984375l-8.46875 0l0 1.359375q0 1.1875 0.703125 1.921875q0.71875 0.734375 1.875 0.734375l1.71875 0q1.140625 0 1.828125 -0.625q0.703125 -0.625 0.703125 -1.671875l1.59375 0q0 1.6875 -1.140625 2.71875q-1.125 1.03125 -2.984375 1.03125l-1.71875 0zm4.25 -6.875l0 -0.578125q0 -1.25 -0.65625 -2.0q-0.65625 -0.765625 -1.734375 -0.765625l-1.859375 0q-1.15625 0 -1.875 0.796875q-0.703125 0.78125 -0.703125 2.078125l0 0.46875l6.828125 0zm4.4906006 -4.625l1.59375 0l0 1.6875q0.515625 -0.8125 1.34375 -1.328125q0.84375 -0.53125 1.6875 -0.53125l1.546875 0q1.5625 0 2.515625 1.0625q0.96875 1.0625 0.96875 2.78125l0 7.640625l-1.640625 0l0 -7.6875q0 -1.03125 -0.515625 -1.6875q-0.515625 -0.65625 -1.375 -0.65625l-1.453125 0q-1.0625 0 -1.9375 0.84375q-0.875 0.828125 -1.09375 2.140625l0 7.046875l-1.640625 0l0 -11.3125zm17.39685 11.3125q-1.78125 0 -2.5625 -0.765625q-0.78125 -0.78125 -0.78125 -2.546875l0 -6.546875l-2.0 0l0 -1.453125l2.0 0l0 -3.40625l1.625 0l0 3.40625l2.953125 0l0 1.453125l-2.953125 0l0 6.546875q0 1.0 0.390625 1.4375q0.40625 0.421875 1.328125 0.421875l1.234375 0l0 1.453125l-1.234375 0zm7.2108154 0.1875q-1.65625 0 -2.640625 -0.859375q-0.984375 -0.875 -0.984375 -2.3125l0 -0.734375q0 -1.421875 1.015625 -2.28125q1.015625 -0.859375 2.703125 -0.859375l1.453125 0q0.734375 0 1.53125 0.234375q0.796875 0.21875 1.359375 0.59375l0 -1.875q0 -0.953125 -0.59375 -1.546875q-0.578125 -0.609375 -1.5625 -0.609375l-1.8125 0q-0.96875 0 -1.5625 0.453125q-0.578125 0.453125 -0.578125 1.203125l-1.640625 0q0 -1.375 1.046875 -2.21875q1.046875 -0.859375 2.734375 -0.859375l1.8125 0q1.6875 0 2.71875 0.984375q1.03125 0.984375 1.03125 2.59375l0 7.90625l-1.546875 0l0 -1.578125q-0.515625 0.8125 -1.375 1.296875q-0.84375 0.46875 -1.75 0.46875l-1.359375 0zm1.40625 -1.4375q1.0625 0 1.890625 -0.65625q0.84375 -0.65625 1.140625 -1.734375l0 -0.84375q-0.453125 -0.4375 -1.265625 -0.6875q-0.796875 -0.265625 -1.625 -0.265625l-1.453125 0q-0.9375 0 -1.515625 0.484375q-0.578125 0.46875 -0.578125 1.234375l0 0.734375q0 0.78125 0.546875 1.265625q0.546875 0.46875 1.453125 0.46875l1.40625 0zm12.362549 1.25q-1.78125 0 -2.5625 -0.765625q-0.78125 -0.78125 -0.78125 -2.546875l0 -6.546875l-2.0 0l0 -1.453125l2.0 0l0 -3.40625l1.625 0l0 3.40625l2.953125 0l0 1.453125l-2.953125 0l0 6.546875q0 1.0 0.390625 1.4375q0.40625 0.421875 1.328125 0.421875l1.234375 0l0 1.453125l-1.234375 0zm5.435913 -13.0q-0.53125 0 -0.875 -0.34375q-0.34375 -0.34375 -0.34375 -0.890625q0 -0.53125 0.34375 -0.875q0.34375 -0.34375 0.875 -0.34375q0.546875 0 0.890625 0.34375q0.34375 0.34375 0.34375 0.875q0 0.546875 -0.34375 0.890625q-0.34375 0.34375 -0.890625 0.34375zm-0.8125 1.6875l1.640625 0l0 11.3125l-1.640625 0l0 -11.3125zm9.25 11.5q-1.90625 0 -3.0625 -1.171875q-1.15625 -1.1875 -1.15625 -3.109375l0 -3.109375q0 -1.921875 1.171875 -3.09375q1.171875 -1.1875 3.09375 -1.1875l1.859375 0q1.921875 0 3.078125 1.1875q1.171875 1.171875 1.171875 3.09375l0 3.109375q0 1.921875 -1.1875 3.109375q-1.171875 1.171875 -3.109375 1.171875l-1.859375 0zm1.859375 -1.453125q1.21875 0 1.9375 -0.78125q0.734375 -0.78125 0.734375 -2.046875l0 -3.109375q0 -1.265625 -0.734375 -2.046875q-0.71875 -0.78125 -1.890625 -0.78125l-1.859375 0q-1.1875 0 -1.90625 0.78125q-0.71875 0.78125 -0.71875 2.046875l0 3.109375q0 1.28125 0.6875 2.0625q0.703125 0.765625 1.890625 0.765625l1.859375 0zm7.2889404 -10.046875l1.59375 0l0 1.6875q0.515625 -0.8125 1.34375 -1.328125q0.84375 -0.53125 1.6875 -0.53125l1.546875 0q1.5625 0 2.515625 1.0625q0.96875 1.0625 0.96875 2.78125l0 7.640625l-1.640625 0l0 -7.6875q0 -1.03125 -0.515625 -1.6875q-0.515625 -0.65625 -1.375 -0.65625l-1.453125 0q-1.0625 0 -1.9375 0.84375q-0.875 0.828125 -1.09375 2.140625l0 7.046875l-1.640625 0l0 -11.3125zm13.724976 11.53125q-0.53125 0 -0.875 -0.328125q-0.34375 -0.34375 -0.34375 -0.890625q0 -0.546875 0.34375 -0.875q0.34375 -0.34375 0.875 -0.34375q0.546875 0 0.890625 0.34375q0.34375 0.328125 0.34375 0.875q0 0.546875 -0.34375 0.890625q-0.34375 0.328125 -0.890625 0.328125z" fill-rule="nonzero"/><path fill="#a2c4c9" d="m203.66374 154.71555l-6.15625 0l-2.125 3.875l-1.59375 0l7.84375 -14.0l0.671875 0q0.65625 0 0.828125 0.796875l1.65625 8.078125l0.015625 0l0 0.046875l1.046875 5.078125l-1.4375 0l-0.75 -3.875zm-5.484375 -1.25l5.234375 0l-1.375 -6.953125l-0.015625 0l-3.84375 6.953125zm17.84311 5.28125q-1.4375 0 -2.265625 -0.671875q-0.8125 -0.6875 -0.8125 -1.828125q0 -0.296875 0.0625 -0.609375l1.40625 0q-0.046875 0.265625 -0.046875 0.390625q0 0.6875 0.4375 1.09375q0.4375 0.390625 1.21875 0.390625l1.75 0q0.890625 0 1.453125 -0.328125q0.578125 -0.328125 0.703125 -0.9375l0.140625 -0.671875q0.015625 -0.0625 0.015625 -0.171875q0 -0.328125 -0.25 -0.5625q-0.25 -0.25 -0.671875 -0.328125l-3.359375 -0.609375q-0.890625 -0.15625 -1.421875 -0.65625q-0.515625 -0.515625 -0.515625 -1.21875q0 -0.09375 0.046875 -0.34375l0.109375 -0.65625q0.21875 -1.21875 1.125 -1.890625q0.90625 -0.6875 2.296875 -0.6875l1.71875 0q1.34375 0 2.109375 0.640625q0.78125 0.640625 0.78125 1.71875q0 0.34375 -0.046875 0.515625l-1.40625 0q0.03125 -0.09375 0.03125 -0.3125q0 -0.609375 -0.390625 -0.96875q-0.390625 -0.359375 -1.078125 -0.359375l-1.71875 0q-0.796875 0 -1.328125 0.359375q-0.515625 0.359375 -0.65625 0.984375l-0.109375 0.578125q-0.078125 0.390625 0.1875 0.6875q0.28125 0.28125 0.8125 0.375l3.328125 0.609375q0.875 0.15625 1.375 0.65625q0.5 0.5 0.5 1.203125q0 0.109375 -0.046875 0.359375l-0.140625 0.796875q-0.21875 1.15625 -1.15625 1.8125q-0.9375 0.640625 -2.4375 0.640625l-1.75 0zm11.186249 -0.15625q-1.328125 0 -1.9375 -0.46875q-0.609375 -0.46875 -0.609375 -1.515625q0 -0.375 0.109375 -0.9375l1.015625 -5.78125l-1.765625 0l0.21875 -1.28125l1.765625 0l0.546875 -3.015625l1.4375 0l-0.546875 3.015625l2.609375 0l-0.21875 1.28125l-2.609375 0l-1.015625 5.78125q-0.046875 0.203125 -0.046875 0.5625q0 0.59375 0.28125 0.84375q0.296875 0.234375 1.0 0.234375l1.0625 0l-0.234375 1.28125l-1.0625 0zm6.540619 0.15625q-1.328125 0 -2.15625 -0.625q-0.8125 -0.625 -0.8125 -1.6875q0 -0.15625 0.046875 -0.484375l0.125 -0.65625q0.234375 -1.328125 1.15625 -2.046875q0.9375 -0.71875 2.375 -0.71875l1.28125 0q0.65625 0 1.4375 0.21875q0.796875 0.203125 1.21875 0.53125l0.28125 -1.671875q0.046875 -0.28125 0.046875 -0.390625q0 -0.703125 -0.4375 -1.09375q-0.421875 -0.40625 -1.171875 -0.40625l-1.59375 0q-0.859375 0 -1.453125 0.40625q-0.59375 0.390625 -0.703125 1.046875l-1.4375 0q0.21875 -1.21875 1.203125 -1.96875q0.984375 -0.75 2.390625 -0.75l1.59375 0q1.40625 0 2.21875 0.6875q0.8125 0.671875 0.8125 1.859375q0 0.28125 -0.0625 0.609375l-1.21875 6.984375l-1.359375 0l0.234375 -1.40625q-0.59375 0.75 -1.3125 1.15625q-0.71875 0.40625 -1.5 0.40625l-1.203125 0zm1.234375 -1.25q0.9375 0 1.78125 -0.578125q0.859375 -0.59375 1.28125 -1.546875l0.140625 -0.734375q-0.34375 -0.390625 -1.015625 -0.609375q-0.671875 -0.234375 -1.40625 -0.234375l-1.28125 0q-0.859375 0 -1.40625 0.40625q-0.546875 0.390625 -0.6875 1.109375l-0.125 0.640625q-0.03125 0.234375 -0.03125 0.328125q0 0.546875 0.40625 0.890625q0.40625 0.328125 1.109375 0.328125l1.234375 0zm8.588745 -8.890625l1.390625 0l-0.25 1.484375q0.609375 -0.78125 1.359375 -1.203125q0.75 -0.4375 1.5 -0.4375l1.28125 0q1.25 0 1.984375 0.71875q0.734375 0.703125 0.734375 1.921875q0 0.359375 -0.0625 0.765625l-1.1875 6.734375l-1.4375 0l1.203125 -6.78125q0.03125 -0.171875 0.03125 -0.53125q0 -0.734375 -0.359375 -1.140625q-0.359375 -0.40625 -1.0 -0.40625l-1.28125 0q-0.9375 0 -1.84375 0.75q-0.890625 0.734375 -1.28125 1.890625l-1.109375 6.21875l-1.4375 0l1.765625 -9.984375zm12.971237 10.140625q-1.5 0 -2.328125 -0.75q-0.8125 -0.765625 -0.8125 -2.140625q0 -0.5 0.078125 -0.921875l0.421875 -2.40625q0.328125 -1.859375 1.4375 -2.96875q1.125 -1.109375 2.75 -1.109375l1.46875 0q0.765625 0 1.390625 0.328125q0.640625 0.328125 0.953125 0.875l0.890625 -5.0625l1.4375 0l-2.46875 14.0l-1.390625 0l0.25 -1.484375q-0.578125 0.75 -1.328125 1.203125q-0.75 0.4375 -1.40625 0.4375l-1.34375 0zm1.34375 -1.28125q0.640625 0 1.296875 -0.40625q0.65625 -0.40625 1.15625 -1.0625q0.5 -0.671875 0.6875 -1.359375l0.4375 -2.53125q0.046875 -1.0625 -0.484375 -1.71875q-0.53125 -0.65625 -1.453125 -0.65625l-1.40625 0q-1.015625 0 -1.796875 0.78125q-0.765625 0.765625 -0.984375 2.015625l-0.421875 2.40625q-0.046875 0.375 -0.046875 0.703125q0 0.875 0.4375 1.359375q0.4375 0.46875 1.28125 0.46875l1.296875 0zm9.981842 1.28125q-1.328125 0 -2.15625 -0.625q-0.8125 -0.625 -0.8125 -1.6875q0 -0.15625 0.046875 -0.484375l0.125 -0.65625q0.234375 -1.328125 1.15625 -2.046875q0.9375 -0.71875 2.375 -0.71875l1.28125 0q0.65625 0 1.4375 0.21875q0.796875 0.203125 1.21875 0.53125l0.28125 -1.671875q0.046875 -0.28125 0.046875 -0.390625q0 -0.703125 -0.4375 -1.09375q-0.421875 -0.40625 -1.171875 -0.40625l-1.59375 0q-0.859375 0 -1.453125 0.40625q-0.59375 0.390625 -0.703125 1.046875l-1.4375 0q0.21875 -1.21875 1.203125 -1.96875q0.984375 -0.75 2.390625 -0.75l1.59375 0q1.40625 0 2.21875 0.6875q0.8125 0.671875 0.8125 1.859375q0 0.28125 -0.0625 0.609375l-1.21875 6.984375l-1.359375 0l0.234375 -1.40625q-0.59375 0.75 -1.3125 1.15625q-0.71875 0.40625 -1.5 0.40625l-1.203125 0zm1.234375 -1.25q0.9375 0 1.78125 -0.578125q0.859375 -0.59375 1.28125 -1.546875l0.140625 -0.734375q-0.34375 -0.390625 -1.015625 -0.609375q-0.671875 -0.234375 -1.40625 -0.234375l-1.28125 0q-0.859375 0 -1.40625 0.40625q-0.546875 0.390625 -0.6875 1.109375l-0.125 0.640625q-0.03125 0.234375 -0.03125 0.328125q0 0.546875 0.40625 0.890625q0.40625 0.328125 1.109375 0.328125l1.234375 0zm8.588745 -8.890625l1.390625 0l-0.28125 1.546875q0.5625 -0.75 1.34375 -1.15625q0.796875 -0.421875 1.640625 -0.421875l1.078125 0l-0.21875 1.296875l-0.859375 0q-1.296875 0 -2.234375 0.8125q-0.921875 0.8125 -1.171875 2.140625l-1.015625 5.765625l-1.4375 0l1.765625 -9.984375zm8.311249 10.140625q-1.5 0 -2.328125 -0.75q-0.8125 -0.765625 -0.8125 -2.140625q0 -0.5 0.078125 -0.921875l0.421875 -2.40625q0.328125 -1.859375 1.4375 -2.96875q1.125 -1.109375 2.75 -1.109375l1.46875 0q0.765625 0 1.390625 0.328125q0.640625 0.328125 0.953125 0.875l0.890625 -5.0625l1.4375 0l-2.46875 14.0l-1.390625 0l0.25 -1.484375q-0.578125 0.75 -1.328125 1.203125q-0.75 0.4375 -1.40625 0.4375l-1.34375 0zm1.34375 -1.28125q0.640625 0 1.296875 -0.40625q0.65625 -0.40625 1.15625 -1.0625q0.5 -0.671875 0.6875 -1.359375l0.4375 -2.53125q0.046875 -1.0625 -0.484375 -1.71875q-0.53125 -0.65625 -1.453125 -0.65625l-1.40625 0q-1.015625 0 -1.796875 0.78125q-0.765625 0.765625 -0.984375 2.015625l-0.421875 2.40625q-0.046875 0.375 -0.046875 0.703125q0 0.875 0.4375 1.359375q0.4375 0.46875 1.28125 0.46875l1.296875 0zm10.013092 -10.359375q-0.390625 0 -0.640625 -0.234375q-0.25 -0.234375 -0.25 -0.625q0 -0.578125 0.34375 -0.9375q0.359375 -0.359375 0.90625 -0.359375q0.421875 0 0.671875 0.234375q0.25 0.21875 0.25 0.625q0 0.578125 -0.359375 0.9375q-0.34375 0.359375 -0.921875 0.359375zm-0.96875 1.5l1.4375 0l-1.765625 9.984375l-1.4375 0l1.765625 -9.984375zm2.3875122 9.34375l7.34375 -8.125l-5.671875 0l0.21875 -1.21875l7.75 0l-0.109375 0.640625l-7.34375 8.125l5.8125 0l-0.21875 1.21875l-7.890625 0l0.109375 -0.640625zm13.267487 0.796875q-1.5625 0 -2.453125 -0.78125q-0.890625 -0.796875 -0.890625 -2.109375q0 -0.359375 0.0625 -0.71875l0.5 -2.859375q0.328125 -1.8125 1.421875 -2.8125q1.09375 -1.015625 2.734375 -1.015625l1.640625 0q1.421875 0 2.296875 0.828125q0.890625 0.8125 0.890625 2.171875q0 0.359375 -0.0625 0.71875l-0.296875 1.765625l-7.484375 0l-0.203125 1.203125q-0.03125 0.171875 -0.03125 0.515625q0 0.84375 0.5 1.328125q0.5 0.484375 1.375 0.484375l1.515625 0q1.0625 0 1.75 -0.53125q0.6875 -0.546875 0.859375 -1.484375l1.390625 0q-0.25 1.5625 -1.3125 2.4375q-1.0625 0.859375 -2.6875 0.859375l-1.515625 0zm4.59375 -6.0625l0.109375 -0.515625q0.0625 -0.296875 0.0625 -0.59375q0 -0.828125 -0.484375 -1.328125q-0.46875 -0.515625 -1.265625 -0.515625l-1.640625 0q-1.0625 0 -1.78125 0.671875q-0.71875 0.671875 -0.9375 1.875l-0.078125 0.40625l6.015625 0zm6.243103 6.0625q-1.5 0 -2.328125 -0.75q-0.8125 -0.765625 -0.8125 -2.140625q0 -0.5 0.078125 -0.921875l0.421875 -2.40625q0.328125 -1.859375 1.4375 -2.96875q1.125 -1.109375 2.75 -1.109375l1.46875 0q0.765625 0 1.390625 0.328125q0.640625 0.328125 0.953125 0.875l0.890625 -5.0625l1.4375 0l-2.46875 14.0l-1.390625 0l0.25 -1.484375q-0.578125 0.75 -1.328125 1.203125q-0.75 0.4375 -1.40625 0.4375l-1.34375 0zm1.34375 -1.28125q0.640625 0 1.296875 -0.40625q0.65625 -0.40625 1.15625 -1.0625q0.5 -0.671875 0.6875 -1.359375l0.4375 -2.53125q0.046875 -1.0625 -0.484375 -1.71875q-0.53125 -0.65625 -1.453125 -0.65625l-1.40625 0q-1.015625 0 -1.796875 0.78125q-0.765625 0.765625 -0.984375 2.015625l-0.421875 2.40625q-0.046875 0.375 -0.046875 0.703125q0 0.875 0.4375 1.359375q0.4375 0.46875 1.28125 0.46875l1.296875 0zm15.181885 1.28125q-1.328125 0 -2.15625 -0.625q-0.8125 -0.625 -0.8125 -1.6875q0 -0.15625 0.046875 -0.484375l0.125 -0.65625q0.234375 -1.328125 1.15625 -2.046875q0.9375 -0.71875 2.375 -0.71875l1.28125 0q0.65625 0 1.4375 0.21875q0.796875 0.203125 1.21875 0.53125l0.28125 -1.671875q0.046875 -0.28125 0.046875 -0.390625q0 -0.703125 -0.4375 -1.09375q-0.421875 -0.40625 -1.171875 -0.40625l-1.59375 0q-0.859375 0 -1.453125 0.40625q-0.59375 0.390625 -0.703125 1.046875l-1.4375 0q0.21875 -1.21875 1.203125 -1.96875q0.984375 -0.75 2.390625 -0.75l1.59375 0q1.40625 0 2.21875 0.6875q0.8125 0.671875 0.8125 1.859375q0 0.28125 -0.0625 0.609375l-1.21875 6.984375l-1.359375 0l0.234375 -1.40625q-0.59375 0.75 -1.3125 1.15625q-0.71875 0.40625 -1.5 0.40625l-1.203125 0zm1.234375 -1.25q0.9375 0 1.78125 -0.578125q0.859375 -0.59375 1.28125 -1.546875l0.140625 -0.734375q-0.34375 -0.390625 -1.015625 -0.609375q-0.671875 -0.234375 -1.40625 -0.234375l-1.28125 0q-0.859375 0 -1.40625 0.40625q-0.546875 0.390625 -0.6875 1.109375l-0.125 0.640625q-0.03125 0.234375 -0.03125 0.328125q0 0.546875 0.40625 0.890625q0.40625 0.328125 1.109375 0.328125l1.234375 0zm8.588745 -8.890625l1.390625 0l-0.25 1.484375q0.609375 -0.78125 1.359375 -1.203125q0.75 -0.4375 1.5 -0.4375l1.28125 0q1.25 0 1.984375 0.71875q0.734375 0.703125 0.734375 1.921875q0 0.359375 -0.0625 0.765625l-1.1875 6.734375l-1.4375 0l1.203125 -6.78125q0.03125 -0.171875 0.03125 -0.53125q0 -0.734375 -0.359375 -1.140625q-0.359375 -0.40625 -1.0 -0.40625l-1.28125 0q-0.9375 0 -1.84375 0.75q-0.890625 0.734375 -1.28125 1.890625l-1.109375 6.21875l-1.4375 0l1.765625 -9.984375zm12.971222 10.140625q-1.5 0 -2.328125 -0.75q-0.8125 -0.765625 -0.8125 -2.140625q0 -0.5 0.078125 -0.921875l0.421875 -2.40625q0.328125 -1.859375 1.4375 -2.96875q1.125 -1.109375 2.75 -1.109375l1.46875 0q0.765625 0 1.390625 0.328125q0.640625 0.328125 0.953125 0.875l0.890625 -5.0625l1.4375 0l-2.46875 14.0l-1.390625 0l0.25 -1.484375q-0.578125 0.75 -1.328125 1.203125q-0.75 0.4375 -1.40625 0.4375l-1.34375 0zm1.34375 -1.28125q0.640625 0 1.296875 -0.40625q0.65625 -0.40625 1.15625 -1.0625q0.5 -0.671875 0.6875 -1.359375l0.4375 -2.53125q0.046875 -1.0625 -0.484375 -1.71875q-0.53125 -0.65625 -1.453125 -0.65625l-1.40625 0q-1.015625 0 -1.796875 0.78125q-0.765625 0.765625 -0.984375 2.015625l-0.421875 2.40625q-0.046875 0.375 -0.046875 0.703125q0 0.875 0.4375 1.359375q0.4375 0.46875 1.28125 0.46875l1.296875 0zm16.04123 1.125q-1.328125 0 -1.9375 -0.46875q-0.609375 -0.46875 -0.609375 -1.515625q0 -0.375 0.109375 -0.9375l1.015625 -5.78125l-1.765625 0l0.21875 -1.28125l1.765625 0l0.546875 -3.015625l1.4375 0l-0.546875 3.015625l2.609375 0l-0.21875 1.28125l-2.609375 0l-1.015625 5.78125q-0.046875 0.203125 -0.046875 0.5625q0 0.59375 0.28125 0.84375q0.296875 0.234375 1.0 0.234375l1.0625 0l-0.234375 1.28125l-1.0625 0zm6.1712646 -14.0l1.453125 0l-0.953125 5.40625q0.59375 -0.71875 1.328125 -1.125q0.734375 -0.421875 1.484375 -0.421875l1.28125 0q1.265625 0 2.0 0.71875q0.75 0.71875 0.75 1.9375q0 0.34375 -0.0625 0.75l-1.171875 6.734375l-1.4375 0l1.1875 -6.78125q0.046875 -0.171875 0.046875 -0.515625q0 -0.71875 -0.359375 -1.140625q-0.359375 -0.421875 -1.0 -0.421875l-1.328125 0q-0.9375 0 -1.84375 0.734375q-0.890625 0.71875 -1.28125 1.859375l-1.109375 6.265625l-1.4375 0l2.453125 -14.0zm12.54248 14.15625q-1.5625 0 -2.46875 -0.796875q-0.890625 -0.8125 -0.890625 -2.203125q0 -0.25 0.078125 -0.78125l0.484375 -2.734375q0.328125 -1.78125 1.4375 -2.78125q1.109375 -1.0 2.765625 -1.0l1.640625 0q1.578125 0 2.484375 0.8125q0.90625 0.8125 0.90625 2.1875q0 0.265625 -0.078125 0.78125l-0.46875 2.734375q-0.328125 1.78125 -1.453125 2.78125q-1.109375 1.0 -2.796875 1.0l-1.640625 0zm1.640625 -1.28125q1.0625 0 1.828125 -0.6875q0.78125 -0.6875 0.96875 -1.8125l0.484375 -2.734375q0.0625 -0.296875 0.0625 -0.5625q0 -0.875 -0.53125 -1.40625q-0.515625 -0.53125 -1.40625 -0.53125l-1.640625 0q-1.109375 0 -1.84375 0.65625q-0.71875 0.65625 -0.921875 1.84375l-0.484375 2.734375q-0.046875 0.3125 -0.046875 0.578125q0 0.890625 0.5 1.40625q0.515625 0.515625 1.390625 0.515625l1.640625 0zm8.009369 -8.859375l1.390625 0l-0.28125 1.546875q0.5625 -0.75 1.34375 -1.15625q0.796875 -0.421875 1.640625 -0.421875l1.078125 0l-0.21875 1.296875l-0.859375 0q-1.296875 0 -2.234375 0.8125q-0.921875 0.8125 -1.171875 2.140625l-1.015625 5.765625l-1.4375 0l1.765625 -9.984375zm8.529999 10.140625q-1.5625 0 -2.46875 -0.796875q-0.890625 -0.8125 -0.890625 -2.203125q0 -0.25 0.078125 -0.78125l0.484375 -2.734375q0.328125 -1.78125 1.4375 -2.78125q1.109375 -1.0 2.765625 -1.0l1.640625 0q1.578125 0 2.484375 0.8125q0.90625 0.8125 0.90625 2.1875q0 0.265625 -0.078125 0.78125l-0.46875 2.734375q-0.328125 1.78125 -1.453125 2.78125q-1.109375 1.0 -2.796875 1.0l-1.640625 0zm1.640625 -1.28125q1.0625 0 1.828125 -0.6875q0.78125 -0.6875 0.96875 -1.8125l0.484375 -2.734375q0.0625 -0.296875 0.0625 -0.5625q0 -0.875 -0.53125 -1.40625q-0.515625 -0.53125 -1.40625 -0.53125l-1.640625 0q-1.109375 0 -1.84375 0.65625q-0.71875 0.65625 -0.921875 1.84375l-0.484375 2.734375q-0.046875 0.3125 -0.046875 0.578125q0 0.890625 0.5 1.40625q0.515625 0.515625 1.390625 0.515625l1.640625 0zm9.415588 1.28125q-1.296875 0 -2.03125 -0.71875q-0.734375 -0.71875 -0.734375 -1.9375q0 -0.359375 0.046875 -0.734375l1.1875 -6.75l1.4375 0l-1.171875 6.78125q-0.0625 0.296875 -0.0625 0.578125q0 0.703125 0.359375 1.109375q0.359375 0.390625 0.96875 0.390625l1.25 0q0.953125 0 1.828125 -0.703125q0.875 -0.71875 1.328125 -1.890625l1.09375 -6.265625l1.453125 0l-1.765625 9.984375l-1.40625 0l0.28125 -1.515625q-0.609375 0.75 -1.390625 1.21875q-0.78125 0.453125 -1.421875 0.453125l-1.25 0zm10.962524 3.90625q-1.3125 0 -2.125 -0.640625q-0.796875 -0.625 -0.796875 -1.65625l0.03125 -0.28125l1.4375 0q-0.046875 0.59375 0.359375 0.953125q0.421875 0.375 1.09375 0.375l1.671875 0q1.015625 0 1.703125 -0.6875q0.703125 -0.6875 0.9375 -1.921875l0.265625 -1.546875q-0.546875 0.625 -1.21875 0.984375q-0.671875 0.359375 -1.3125 0.359375l-1.46875 0q-1.4375 0 -2.28125 -0.796875q-0.828125 -0.796875 -0.828125 -2.1875q0 -0.4375 0.078125 -0.828125l0.390625 -2.34375q0.3125 -1.796875 1.453125 -2.890625q1.140625 -1.09375 2.78125 -1.09375l1.390625 0q0.75 0 1.40625 0.359375q0.65625 0.34375 0.96875 0.921875l0.203125 -1.125l1.40625 0l-1.796875 10.1875q-0.328125 1.8125 -1.40625 2.828125q-1.078125 1.03125 -2.671875 1.03125l-1.671875 0zm2.046875 -5.34375q1.0 0 1.859375 -0.78125q0.859375 -0.796875 1.15625 -2.015625l0.4375 -2.46875q0.078125 -1.0 -0.46875 -1.65625q-0.546875 -0.65625 -1.46875 -0.65625l-1.359375 0q-1.0625 0 -1.84375 0.75q-0.78125 0.734375 -0.96875 1.953125l-0.40625 2.34375q-0.0625 0.3125 -0.0625 0.609375q0 0.890625 0.453125 1.40625q0.453125 0.515625 1.25 0.515625l1.421875 0zm9.231842 -12.71875l1.453125 0l-0.953125 5.40625q0.59375 -0.71875 1.328125 -1.125q0.734375 -0.421875 1.484375 -0.421875l1.28125 0q1.265625 0 2.0 0.71875q0.75 0.71875 0.75 1.9375q0 0.34375 -0.0625 0.75l-1.171875 6.734375l-1.4375 0l1.1875 -6.78125q0.046875 -0.171875 0.046875 -0.515625q0 -0.71875 -0.359375 -1.140625q-0.359375 -0.421875 -1.0 -0.421875l-1.328125 0q-0.9375 0 -1.84375 0.734375q-0.890625 0.71875 -1.28125 1.859375l-1.109375 6.265625l-1.4375 0l2.453125 -14.0zm17.523773 14.15625q-1.5 0 -2.328125 -0.75q-0.8125 -0.765625 -0.8125 -2.140625q0 -0.5 0.078125 -0.921875l0.421875 -2.40625q0.328125 -1.859375 1.4375 -2.96875q1.125 -1.109375 2.75 -1.109375l1.46875 0q0.765625 0 1.390625 0.328125q0.640625 0.328125 0.953125 0.875l0.890625 -5.0625l1.4375 0l-2.46875 14.0l-1.390625 0l0.25 -1.484375q-0.578125 0.75 -1.328125 1.203125q-0.75 0.4375 -1.40625 0.4375l-1.34375 0zm1.34375 -1.28125q0.640625 0 1.296875 -0.40625q0.65625 -0.40625 1.15625 -1.0625q0.5 -0.671875 0.6875 -1.359375l0.4375 -2.53125q0.046875 -1.0625 -0.484375 -1.71875q-0.53125 -0.65625 -1.453125 -0.65625l-1.40625 0q-1.015625 0 -1.796875 0.78125q-0.765625 0.765625 -0.984375 2.015625l-0.421875 2.40625q-0.046875 0.375 -0.046875 0.703125q0 0.875 0.4375 1.359375q0.4375 0.46875 1.28125 0.46875l1.296875 0zm10.434998 1.28125q-1.5625 0 -2.46875 -0.796875q-0.890625 -0.8125 -0.890625 -2.203125q0 -0.25 0.078125 -0.78125l0.484375 -2.734375q0.328125 -1.78125 1.4375 -2.78125q1.109375 -1.0 2.765625 -1.0l1.640625 0q1.578125 0 2.484375 0.8125q0.90625 0.8125 0.90625 2.1875q0 0.265625 -0.078125 0.78125l-0.46875 2.734375q-0.328125 1.78125 -1.453125 2.78125q-1.109375 1.0 -2.796875 1.0l-1.640625 0zm1.640625 -1.28125q1.0625 0 1.828125 -0.6875q0.78125 -0.6875 0.96875 -1.8125l0.484375 -2.734375q0.0625 -0.296875 0.0625 -0.5625q0 -0.875 -0.53125 -1.40625q-0.515625 -0.53125 -1.40625 -0.53125l-1.640625 0q-1.109375 0 -1.84375 0.65625q-0.71875 0.65625 -0.921875 1.84375l-0.484375 2.734375q-0.046875 0.3125 -0.046875 0.578125q0 0.890625 0.5 1.40625q0.515625 0.515625 1.390625 0.515625l1.640625 0zm9.603088 1.28125q-1.515625 0 -2.375 -0.765625q-0.84375 -0.765625 -0.84375 -2.09375q0 -0.359375 0.0625 -0.734375l0.515625 -2.875q0.34375 -1.8125 1.40625 -2.8125q1.078125 -1.015625 2.65625 -1.015625l1.640625 0q1.453125 0 2.296875 0.6875q0.84375 0.6875 0.84375 1.875q0 0.359375 -0.046875 0.5625l-1.390625 0q0.015625 -0.125 0.015625 -0.34375q0 -0.6875 -0.46875 -1.09375q-0.453125 -0.40625 -1.25 -0.40625l-1.640625 0q-1.015625 0 -1.71875 0.671875q-0.703125 0.671875 -0.90625 1.875l-0.515625 2.875q-0.0625 0.296875 -0.0625 0.53125q0 0.828125 0.484375 1.3125q0.5 0.46875 1.359375 0.46875l1.640625 0q0.984375 0 1.640625 -0.640625q0.65625 -0.640625 0.875 -1.78125l1.40625 0q-0.328125 1.75 -1.375 2.734375q-1.03125 0.96875 -2.546875 0.96875l-1.703125 0zm10.532532 0q-1.296875 0 -2.03125 -0.71875q-0.734375 -0.71875 -0.734375 -1.9375q0 -0.359375 0.046875 -0.734375l1.1875 -6.75l1.4375 0l-1.171875 6.78125q-0.0625 0.296875 -0.0625 0.578125q0 0.703125 0.359375 1.109375q0.359375 0.390625 0.96875 0.390625l1.25 0q0.953125 0 1.828125 -0.703125q0.875 -0.71875 1.328125 -1.890625l1.09375 -6.265625l1.453125 0l-1.765625 9.984375l-1.40625 0l0.28125 -1.515625q-0.609375 0.75 -1.390625 1.21875q-0.78125 0.453125 -1.421875 0.453125l-1.25 0zm20.728088 -10.296875q1.203125 0 1.890625 0.671875q0.6875 0.671875 0.6875 1.8125q0 0.359375 -0.0625 0.71875l-1.21875 6.9375l-1.4375 0l1.234375 -6.984375q0.046875 -0.171875 0.046875 -0.5q0 -0.640625 -0.3125 -1.0q-0.3125 -0.375 -0.875 -0.375l-1.140625 0q-0.8125 0 -1.5 0.609375q-0.6875 0.609375 -1.015625 1.609375l-1.171875 6.640625l-1.453125 0l1.203125 -6.859375q0.0625 -0.296875 0.0625 -0.578125q0 -0.65625 -0.296875 -1.03125q-0.28125 -0.390625 -0.78125 -0.390625l-1.140625 0q-0.8125 0 -1.5625 0.71875q-0.734375 0.71875 -1.109375 1.875l-1.109375 6.265625l-1.4375 0l1.765625 -9.984375l1.390625 0l-0.25 1.4375q0.5 -0.71875 1.15625 -1.15625q0.65625 -0.4375 1.234375 -0.4375l1.1875 0q0.828125 0 1.40625 0.4375q0.59375 0.4375 0.8125 1.203125q0.53125 -0.765625 1.21875 -1.203125q0.703125 -0.4375 1.359375 -0.4375l1.21875 0zm7.7200317 10.296875q-1.5625 0 -2.453125 -0.78125q-0.890625 -0.796875 -0.890625 -2.109375q0 -0.359375 0.0625 -0.71875l0.5 -2.859375q0.328125 -1.8125 1.421875 -2.8125q1.09375 -1.015625 2.734375 -1.015625l1.640625 0q1.421875 0 2.296875 0.828125q0.890625 0.8125 0.890625 2.171875q0 0.359375 -0.0625 0.71875l-0.296875 1.765625l-7.484375 0l-0.203125 1.203125q-0.03125 0.171875 -0.03125 0.515625q0 0.84375 0.5 1.328125q0.5 0.484375 1.375 0.484375l1.515625 0q1.0625 0 1.75 -0.53125q0.6875 -0.546875 0.859375 -1.484375l1.390625 0q-0.25 1.5625 -1.3125 2.4375q-1.0625 0.859375 -2.6875 0.859375l-1.515625 0zm4.59375 -6.0625l0.109375 -0.515625q0.0625 -0.296875 0.0625 -0.59375q0 -0.828125 -0.484375 -1.328125q-0.46875 -0.515625 -1.265625 -0.515625l-1.640625 0q-1.0625 0 -1.78125 0.671875q-0.71875 0.671875 -0.9375 1.875l-0.078125 0.40625l6.015625 0zm4.711853 -4.078125l1.390625 0l-0.25 1.484375q0.609375 -0.78125 1.359375 -1.203125q0.75 -0.4375 1.5 -0.4375l1.28125 0q1.25 0 1.984375 0.71875q0.734375 0.703125 0.734375 1.921875q0 0.359375 -0.0625 0.765625l-1.1875 6.734375l-1.4375 0l1.203125 -6.78125q0.03125 -0.171875 0.03125 -0.53125q0 -0.734375 -0.359375 -1.140625q-0.359375 -0.40625 -1.0 -0.40625l-1.28125 0q-0.9375 0 -1.84375 0.75q-0.890625 0.734375 -1.28125 1.890625l-1.109375 6.21875l-1.4375 0l1.765625 -9.984375zm13.596252 9.984375q-1.328125 0 -1.9375 -0.46875q-0.609375 -0.46875 -0.609375 -1.515625q0 -0.375 0.109375 -0.9375l1.015625 -5.78125l-1.765625 0l0.21875 -1.28125l1.765625 0l0.546875 -3.015625l1.4375 0l-0.546875 3.015625l2.609375 0l-0.21875 1.28125l-2.609375 0l-1.015625 5.78125q-0.046875 0.203125 -0.046875 0.5625q0 0.59375 0.28125 0.84375q0.296875 0.234375 1.0 0.234375l1.0625 0l-0.234375 1.28125l-1.0625 0zm6.5405884 0.15625q-1.328125 0 -2.15625 -0.625q-0.8125 -0.625 -0.8125 -1.6875q0 -0.15625 0.046875 -0.484375l0.125 -0.65625q0.234375 -1.328125 1.15625 -2.046875q0.9375 -0.71875 2.375 -0.71875l1.28125 0q0.65625 0 1.4375 0.21875q0.796875 0.203125 1.21875 0.53125l0.28125 -1.671875q0.046875 -0.28125 0.046875 -0.390625q0 -0.703125 -0.4375 -1.09375q-0.421875 -0.40625 -1.171875 -0.40625l-1.59375 0q-0.859375 0 -1.453125 0.40625q-0.59375 0.390625 -0.703125 1.046875l-1.4375 0q0.21875 -1.21875 1.203125 -1.96875q0.984375 -0.75 2.390625 -0.75l1.59375 0q1.40625 0 2.21875 0.6875q0.8125 0.671875 0.8125 1.859375q0 0.28125 -0.0625 0.609375l-1.21875 6.984375l-1.359375 0l0.234375 -1.40625q-0.59375 0.75 -1.3125 1.15625q-0.71875 0.40625 -1.5 0.40625l-1.203125 0zm1.234375 -1.25q0.9375 0 1.78125 -0.578125q0.859375 -0.59375 1.28125 -1.546875l0.140625 -0.734375q-0.34375 -0.390625 -1.015625 -0.609375q-0.671875 -0.234375 -1.40625 -0.234375l-1.28125 0q-0.859375 0 -1.40625 0.40625q-0.546875 0.390625 -0.6875 1.109375l-0.125 0.640625q-0.03125 0.234375 -0.03125 0.328125q0 0.546875 0.40625 0.890625q0.40625 0.328125 1.109375 0.328125l1.234375 0zm10.744995 1.09375q-1.328125 0 -1.9375 -0.46875q-0.609375 -0.46875 -0.609375 -1.515625q0 -0.375 0.109375 -0.9375l1.015625 -5.78125l-1.765625 0l0.21875 -1.28125l1.765625 0l0.546875 -3.015625l1.4375 0l-0.546875 3.015625l2.609375 0l-0.21875 1.28125l-2.609375 0l-1.015625 5.78125q-0.046875 0.203125 -0.046875 0.5625q0 0.59375 0.28125 0.84375q0.296875 0.234375 1.0 0.234375l1.0625 0l-0.234375 1.28125l-1.0625 0zm6.8118896 -11.484375q-0.390625 0 -0.640625 -0.234375q-0.25 -0.234375 -0.25 -0.625q0 -0.578125 0.34375 -0.9375q0.359375 -0.359375 0.90625 -0.359375q0.421875 0 0.671875 0.234375q0.25 0.21875 0.25 0.625q0 0.578125 -0.359375 0.9375q-0.34375 0.359375 -0.921875 0.359375zm-0.96875 1.5l1.4375 0l-1.765625 9.984375l-1.4375 0l1.765625 -9.984375zm6.590637 10.140625q-1.5625 0 -2.46875 -0.796875q-0.890625 -0.8125 -0.890625 -2.203125q0 -0.25 0.078125 -0.78125l0.484375 -2.734375q0.328125 -1.78125 1.4375 -2.78125q1.109375 -1.0 2.765625 -1.0l1.640625 0q1.578125 0 2.484375 0.8125q0.90625 0.8125 0.90625 2.1875q0 0.265625 -0.078125 0.78125l-0.46875 2.734375q-0.328125 1.78125 -1.453125 2.78125q-1.109375 1.0 -2.796875 1.0l-1.640625 0zm1.640625 -1.28125q1.0625 0 1.828125 -0.6875q0.78125 -0.6875 0.96875 -1.8125l0.484375 -2.734375q0.0625 -0.296875 0.0625 -0.5625q0 -0.875 -0.53125 -1.40625q-0.515625 -0.53125 -1.40625 -0.53125l-1.640625 0q-1.109375 0 -1.84375 0.65625q-0.71875 0.65625 -0.921875 1.84375l-0.484375 2.734375q-0.046875 0.3125 -0.046875 0.578125q0 0.890625 0.5 1.40625q0.515625 0.515625 1.390625 0.515625l1.640625 0zm8.009338 -8.859375l1.390625 0l-0.25 1.484375q0.609375 -0.78125 1.359375 -1.203125q0.75 -0.4375 1.5 -0.4375l1.28125 0q1.25 0 1.984375 0.71875q0.734375 0.703125 0.734375 1.921875q0 0.359375 -0.0625 0.765625l-1.1875 6.734375l-1.4375 0l1.203125 -6.78125q0.03125 -0.171875 0.03125 -0.53125q0 -0.734375 -0.359375 -1.140625q-0.359375 -0.40625 -1.0 -0.40625l-1.28125 0q-0.9375 0 -1.84375 0.75q-0.890625 0.734375 -1.28125 1.890625l-1.109375 6.21875l-1.4375 0l1.765625 -9.984375zm17.96814 -1.5q-0.390625 0 -0.640625 -0.234375q-0.25 -0.234375 -0.25 -0.625q0 -0.578125 0.34375 -0.9375q0.359375 -0.359375 0.90625 -0.359375q0.421875 0 0.671875 0.234375q0.25 0.21875 0.25 0.625q0 0.578125 -0.359375 0.9375q-0.34375 0.359375 -0.921875 0.359375zm-0.96875 1.5l1.4375 0l-1.765625 9.984375l-1.4375 0l1.765625 -9.984375zm6.090637 10.140625q-1.4375 0 -2.265625 -0.671875q-0.8125 -0.6875 -0.8125 -1.828125q0 -0.296875 0.0625 -0.609375l1.40625 0q-0.046875 0.265625 -0.046875 0.390625q0 0.6875 0.4375 1.09375q0.4375 0.390625 1.21875 0.390625l1.75 0q0.890625 0 1.453125 -0.328125q0.578125 -0.328125 0.703125 -0.9375l0.140625 -0.671875q0.015625 -0.0625 0.015625 -0.171875q0 -0.328125 -0.25 -0.5625q-0.25 -0.25 -0.671875 -0.328125l-3.359375 -0.609375q-0.890625 -0.15625 -1.421875 -0.65625q-0.515625 -0.515625 -0.515625 -1.21875q0 -0.09375 0.046875 -0.34375l0.109375 -0.65625q0.21875 -1.21875 1.125 -1.890625q0.90625 -0.6875 2.296875 -0.6875l1.71875 0q1.34375 0 2.109375 0.640625q0.78125 0.640625 0.78125 1.71875q0 0.34375 -0.046875 0.515625l-1.40625 0q0.03125 -0.09375 0.03125 -0.3125q0 -0.609375 -0.390625 -0.96875q-0.390625 -0.359375 -1.078125 -0.359375l-1.71875 0q-0.796875 0 -1.328125 0.359375q-0.515625 0.359375 -0.65625 0.984375l-0.109375 0.578125q-0.078125 0.390625 0.1875 0.6875q0.28125 0.28125 0.8125 0.375l3.328125 0.609375q0.875 0.15625 1.375 0.65625q0.5 0.5 0.5 1.203125q0 0.109375 -0.046875 0.359375l-0.140625 0.796875q-0.21875 1.15625 -1.15625 1.8125q-0.9375 0.640625 -2.4375 0.640625l-1.75 0zm14.349976 -10.140625l1.390625 0l-0.234375 1.359375q0.53125 -0.6875 1.21875 -1.09375q0.703125 -0.421875 1.3125 -0.421875l1.453125 0q1.5 0 2.359375 0.796875q0.875 0.78125 0.875 2.125q0 0.234375 -0.078125 0.796875l-0.4375 2.46875q-0.34375 1.9375 -1.453125 3.03125q-1.109375 1.078125 -2.734375 1.078125l-1.4375 0q-0.765625 0 -1.421875 -0.34375q-0.640625 -0.359375 -0.9375 -0.90625l-0.90625 5.078125l-1.4375 0l2.46875 -13.96875zm3.640625 8.859375q1.078125 0 1.796875 -0.75q0.734375 -0.75 0.96875 -2.078125l0.453125 -2.46875q0.046875 -0.296875 0.046875 -0.578125q0 -0.859375 -0.484375 -1.359375q-0.46875 -0.5 -1.328125 -0.5l-1.40625 0q-0.828125 0 -1.625 0.640625q-0.78125 0.640625 -1.234375 1.671875l-0.53125 3.0q-0.046875 1.109375 0.5 1.765625q0.5625 0.65625 1.515625 0.65625l1.328125 0zm8.919373 1.125q-1.21875 0 -1.796875 -0.421875q-0.5625 -0.421875 -0.5625 -1.421875q0 -0.453125 0.078125 -0.875l1.96875 -11.28125l1.453125 0l-1.984375 11.28125q-0.0625 0.296875 -0.0625 0.53125q0 0.5 0.25 0.703125q0.265625 0.203125 0.875 0.203125l0.671875 0l-0.21875 1.28125l-0.671875 0zm5.6568604 0.15625q-1.328125 0 -2.15625 -0.625q-0.8125 -0.625 -0.8125 -1.6875q0 -0.15625 0.046875 -0.484375l0.125 -0.65625q0.234375 -1.328125 1.15625 -2.046875q0.9375 -0.71875 2.375 -0.71875l1.28125 0q0.65625 0 1.4375 0.21875q0.796875 0.203125 1.21875 0.53125l0.28125 -1.671875q0.046875 -0.28125 0.046875 -0.390625q0 -0.703125 -0.4375 -1.09375q-0.421875 -0.40625 -1.171875 -0.40625l-1.59375 0q-0.859375 0 -1.453125 0.40625q-0.59375 0.390625 -0.703125 1.046875l-1.4375 0q0.21875 -1.21875 1.203125 -1.96875q0.984375 -0.75 2.390625 -0.75l1.59375 0q1.40625 0 2.21875 0.6875q0.8125 0.671875 0.8125 1.859375q0 0.28125 -0.0625 0.609375l-1.21875 6.984375l-1.359375 0l0.234375 -1.40625q-0.59375 0.75 -1.3125 1.15625q-0.71875 0.40625 -1.5 0.40625l-1.203125 0zm1.234375 -1.25q0.9375 0 1.78125 -0.578125q0.859375 -0.59375 1.28125 -1.546875l0.140625 -0.734375q-0.34375 -0.390625 -1.015625 -0.609375q-0.671875 -0.234375 -1.40625 -0.234375l-1.28125 0q-0.859375 0 -1.40625 0.40625q-0.546875 0.390625 -0.6875 1.109375l-0.125 0.640625q-0.03125 0.234375 -0.03125 0.328125q0 0.546875 0.40625 0.890625q0.40625 0.328125 1.109375 0.328125l1.234375 0zm8.588745 -8.890625l1.390625 0l-0.25 1.484375q0.609375 -0.78125 1.359375 -1.203125q0.75 -0.4375 1.5 -0.4375l1.28125 0q1.25 0 1.984375 0.71875q0.734375 0.703125 0.734375 1.921875q0 0.359375 -0.0625 0.765625l-1.1875 6.734375l-1.4375 0l1.203125 -6.78125q0.03125 -0.171875 0.03125 -0.53125q0 -0.734375 -0.359375 -1.140625q-0.359375 -0.40625 -1.0 -0.40625l-1.28125 0q-0.9375 0 -1.84375 0.75q-0.890625 0.734375 -1.28125 1.890625l-1.109375 6.21875l-1.4375 0l1.765625 -9.984375zm11.440002 0l1.390625 0l-0.25 1.484375q0.609375 -0.78125 1.359375 -1.203125q0.75 -0.4375 1.5 -0.4375l1.28125 0q1.25 0 1.984375 0.71875q0.734375 0.703125 0.734375 1.921875q0 0.359375 -0.0625 0.765625l-1.1875 6.734375l-1.4375 0l1.203125 -6.78125q0.03125 -0.171875 0.03125 -0.53125q0 -0.734375 -0.359375 -1.140625q-0.359375 -0.40625 -1.0 -0.40625l-1.28125 0q-0.9375 0 -1.84375 0.75q-0.890625 0.734375 -1.28125 1.890625l-1.109375 6.21875l-1.4375 0l1.765625 -9.984375zm13.174377 10.140625q-1.5625 0 -2.453125 -0.78125q-0.890625 -0.796875 -0.890625 -2.109375q0 -0.359375 0.0625 -0.71875l0.5 -2.859375q0.328125 -1.8125 1.421875 -2.8125q1.09375 -1.015625 2.734375 -1.015625l1.640625 0q1.421875 0 2.296875 0.828125q0.890625 0.8125 0.890625 2.171875q0 0.359375 -0.0625 0.71875l-0.296875 1.765625l-7.484375 0l-0.203125 1.203125q-0.03125 0.171875 -0.03125 0.515625q0 0.84375 0.5 1.328125q0.5 0.484375 1.375 0.484375l1.515625 0q1.0625 0 1.75 -0.53125q0.6875 -0.546875 0.859375 -1.484375l1.390625 0q-0.25 1.5625 -1.3125 2.4375q-1.0625 0.859375 -2.6875 0.859375l-1.515625 0zm4.59375 -6.0625l0.109375 -0.515625q0.0625 -0.296875 0.0625 -0.59375q0 -0.828125 -0.484375 -1.328125q-0.46875 -0.515625 -1.265625 -0.515625l-1.640625 0q-1.0625 0 -1.78125 0.671875q-0.71875 0.671875 -0.9375 1.875l-0.078125 0.40625l6.015625 0zm6.243103 6.0625q-1.5 0 -2.328125 -0.75q-0.8125 -0.765625 -0.8125 -2.140625q0 -0.5 0.078125 -0.921875l0.421875 -2.40625q0.328125 -1.859375 1.4375 -2.96875q1.125 -1.109375 2.75 -1.109375l1.46875 0q0.765625 0 1.390625 0.328125q0.640625 0.328125 0.953125 0.875l0.890625 -5.0625l1.4375 0l-2.46875 14.0l-1.390625 0l0.25 -1.484375q-0.578125 0.75 -1.328125 1.203125q-0.75 0.4375 -1.40625 0.4375l-1.34375 0zm1.34375 -1.28125q0.640625 0 1.296875 -0.40625q0.65625 -0.40625 1.15625 -1.0625q0.5 -0.671875 0.6875 -1.359375l0.4375 -2.53125q0.046875 -1.0625 -0.484375 -1.71875q-0.53125 -0.65625 -1.453125 -0.65625l-1.40625 0q-1.015625 0 -1.796875 0.78125q-0.765625 0.765625 -0.984375 2.015625l-0.421875 2.40625q-0.046875 0.375 -0.046875 0.703125q0 0.875 0.4375 1.359375q0.4375 0.46875 1.28125 0.46875l1.296875 0zm7.5756226 1.328125q-0.421875 0 -0.671875 -0.234375q-0.25 -0.234375 -0.25 -0.625q0 -0.578125 0.34375 -0.9375q0.359375 -0.359375 0.9375 -0.359375q0.40625 0 0.65625 0.234375q0.25 0.234375 0.25 0.625q0 0.578125 -0.359375 0.9375q-0.34375 0.359375 -0.90625 0.359375z" fill-rule="nonzero"/></g></svg>